<svg xmlns="http://www.w3.org/2000/svg" viewBox="0 0 980 910.76"><title>check</title><g id="Слой_2" data-name="Слой 2"><g id="Слой_1-2" data-name="Слой 1"><path fill="#ff6a6a" d="M0,505q23.45-23.52,46.89-47Q70,434.73,93,411.43c.92-.93,1.91-1.77,3.23-3L330.34,616.92c1.45-2.13,2.71-4,4-5.82C411.7,497,496.6,388.89,592.91,290c71.78-73.67,150.1-140,232-201.94,38.9-29.43,79-57.29,118.52-85.88A33.2,33.2,0,0,0,946,0h1c4,10.89,7.93,21.81,12.06,32.66C966,50.8,973,68.89,980,87v1C839.42,226.9,714.13,378.27,605.91,543.79c-77.12,118-150.72,238-219.26,361.13-.79,1.42-1.68,2.8-3.51,5.84-1.25-2-1.88-3.64-3-4.8Q192,707.57,3.66,509.26C2.54,508.08,1.23,507.08,0,506Z"/></g></g></svg>