<svg xmlns="http://www.w3.org/2000/svg" viewBox="0 0 2316.28 2316.99"><title>icon-2</title><g id="Слой_2" data-name="Слой 2"><g id="Слой_1-2" data-name="Слой 1"><path d="M2316.28,1159.33c-10.61,4.57-20.89,10.29-31.91,13.43-17.07,4.86-34.32,3.22-51-3.18-2.07-.79-4.2-1.45-8.42-2.89,7.88,13.93,18.93,20.53,32.44,26.16-7.31,5.14-14,8.09-21.4,5.26a168,168,0,0,1-25.94-12.44c-12-7.24-24-14.36-38-17.35a21.72,21.72,0,0,0-8.66-.2c28.74,9.16,51.2,25,63,55.08h-38.61c-1.16,14-2.64,28.24-15.28,39.52-3.3-38.41-20.65-67.07-52.66-87,9.48,19.19,15.76,38.5,5.85,60.46-11-32.5-27.27-51.14-52.56-60,12.12,10.75,20.41,23.58,23.23,42.11-30.11-32.12-65.86-31.19-103.91-23.42-6.2-9.58-14.67-17.2-27.57-21.19,6.08-4.57,11.16-5.07,16.43-4.79,28.51,1.53,56.18,6.64,82.1,19.26a6.06,6.06,0,0,0,4.06.55c-3.57-5-8.62-8.16-13.56-11.41-5.29-3.47-10.68-6.79-16.19-9.9s-11.19-5.85-18.39-9.59c18.92-9.48,36.55-19,50.92-33.76-2.53,1.24-5.07,2.47-7.6,3.72-20,9.87-41.34,14.67-63.25,17.47-5.62.72-11.26,1.23-16.91,1.69-6,.49-11.75-.48-17.49-4.86,10.7-3.7,19.16-9.41,25.11-18.27,2.49-3.71,5.66-2.4,8.92-2,9.89,1.25,19.78,3.16,29.7,3.38,24.59.53,46.85-5.78,64.09-24.71.61-.67,1.65-1,3.38-1.92-2.94,17.46-10.83,31-26.29,42.24,26.61-8.24,46-29.87,55-59.58,9.26,11,7.78,27.37-6.19,60.34,32.77-21.45,50.39-49.74,53.66-88.34,13,10.74,14,24.91,15.47,39h36.67c-.69,10.66-10,24.54-23.4,35.6-11.17,9.2-24.16,14.83-37.72,20.28a29.41,29.41,0,0,0,4.88,0c14-2.41,26.44-8.66,38.45-16.09a191.18,191.18,0,0,1,24.55-13.16c8.38-3.62,16.92-2.79,25.85,4-13,5.7-24.7,12.18-32.42,26.37,33.19-13.37,63.31-11.65,91.51,8.15Zm-139.12,70c-1.56-17.78-10-32-20.55-45.47,18.35,3.1,33.75,11.63,48.72,21.2-9.7-12.11-22.48-19.68-36.37-25.53-8.58-3.61-17.4-6.63-26.07-10-6.78-2.64-13.33-5.67-18.73-11.64,4.59-5.34,10.13-8.27,16-10.63,8-3.24,16.13-6.23,24.22-9.28,12.23-4.62,23.62-10.73,33.61-19.24a44,44,0,0,0,4-4.48c-15.1,7.48-29.44,15.34-47.55,18.7,12.85-14.37,21.29-29.09,23.05-47a19.47,19.47,0,0,0-3.23,5.58c-4.71,13.13-12.71,24-22.5,33.77-11.69,11.62-25.32,20.45-39.87,28-2.47,1.29-4.82,2.82-8.13,4.76C2136.63,1174.49,2164.58,1194.14,2177.16,1229.34Zm-112.87-71.44c21.14,8.84,38.33,19.11,51.37,35.53-4.33-13.43-11.66-24.94-21.29-35.39,9.1-11,17.42-22,21-35.83C2102.67,1138.9,2085.19,1148.78,2064.29,1157.9Zm176,35.52.78-1.52-43.61-34.08,42.52-33.23c-2.1-.87-3.89-1-5.14-.27-18.64,11.28-37.22,22.68-56.7,34.6,19.39,6.49,34.72,19.42,51.55,29.9C2232.91,1190.84,2236.73,1191.91,2240.28,1193.42Zm3.68-34.83c16.48,5.28,31.83,9.39,48,0C2280.59,1149.05,2260.79,1149.07,2244,1158.59Z"/><path d="M1348.86,627c18.46,16.7,23.87,36.38,19.71,60.25,2.55-.59,4.69-.77,6.57-1.56,18.88-7.89,32.92-21.17,42.68-39,11.24-20.52,16.5-42.76,18.47-65.89.31-3.6.46-7.21.68-10.82,15.3,1.07,30.46,16.44,38.77,39.65,16.94-34.54,44.59-54.49,79.64-65.16,8.51,14.87,7.42,30.3-3.89,58,25.43,3.66,49.42-1.36,74.25-10-2.08,21.57-5.87,40.87-20,56.5a48.09,48.09,0,0,1-36.39,16.28c-13.26.06-26.52-1.83-39.78-2.74-7-.47-14-.95-20.93-.88-3.37,0-6.72,1.31-10,2.49,50.77-4.24,77,27.21,82.48,70.75,4.67.86,9.59,1.51,14.38,2.68,26.52,6.5,45.91,21.41,53.32,48.45,2.66,9.7,2.13,20.28,3.15,31.61.87-4.58,2.36-8.38,2.15-12.09-.63-11.61-2.3-23.18-2.81-34.8-.47-10.92-1.12-22,.35-32.78,2.28-16.56,12.25-28.48,26.86-36.42,13.39-7.26,28-10,44.53-11.58-8.31,24.53-13.31,48.4-10.19,73.39,9.54-2.76,18.76-6.29,28.31-8,9.78-1.7,19.82-1.08,30.17,4.22-10.69,35.51-30.51,63.17-65.73,80.53,21,5.78,33.49,18.53,42.18,38.05-4.66.47-8.07.88-11.5,1.14-23.5,1.8-46.07,7.06-66.94,18.36-18.2,9.85-31.68,24.14-39.65,43.39-.62,1.5-1,3.09-2,6.1,23.82-4.35,43.84,1.05,61.11,19.5-22.66,6-40.19,18.29-56.4,32.75-4.23,3.77-8.46,7.55-12.65,11.35-21.49,19.51-43.79,37.93-71.54,51.84,9.48,2.26,17.38,3.72,25,6.08a53.55,53.55,0,0,1,21.27,12.21c-21.5,15.5-45.39,21.61-70.92,25.45,7.22,6.17,14.11,11.21,20,17.27s9,13.87,10.7,23.19c-2.61-.21-4.81-.06-6.82-.61-16.88-4.56-34.09-6.5-51.41-4.43a54.31,54.31,0,0,0-20.54,6.77c-9.83,5.73-9.61,12.87.17,19a47.32,47.32,0,0,0,15.68,6c17.67,3.56,35.13.75,52.49-2.81,2.28-.47,4.5-1.2,6.77-1.64a15.11,15.11,0,0,1,3.51.29c-3.29,18.45-14.6,30.18-32.63,39.62,27.2,4.65,51.35,10.2,73,26-13.35,11.7-28.65,15.86-46.69,17.13,2.93,2,4.63,3.31,6.51,4.32,18.34,9.77,34.93,22,50.59,35.58,8.06,7,16,14.1,23.93,21.24,17.17,15.49,35.23,29.53,59.28,35.61a43,43,0,0,1-26.93,18.35c-10.47,2.32-21.45,2.36-32.65,3.43,3,11.19,9.57,21,17.77,29.84,15.57,16.74,35.61,25.61,57.29,30.73,13.87,3.27,28.14,4.83,42.26,7.17-1.58,14.09-14.21,26.7-39.07,38,34.22,16.78,53.86,44.54,64.83,80.23-20.57,8.51-39.13,5-58.44-5.61-1.59,13.42-1.75,25.82.66,38.11,2.34,12,5.4,23.82,8.36,36.68-21.9-2-42.45-6.21-58.24-22.7a47.15,47.15,0,0,1-13.41-33.57c.11-13.6,1.83-27.19,3-40.77.87-10.24,2.19-20.47-2.35-30.49,2.29,21.41-1.21,41.08-16,57.55-14.37,16-33,23.1-53.67,24.76-7.14,52.25-39.83,74.51-82.69,71.16,7.91,2.94,13.84,3.4,19.86,2.77,10.93-1.15,21.82-3,32.78-3.56,8.91-.47,18-.49,26.8,1,15.27,2.54,26.84,11.27,34.71,24.65,8.28,14.06,11.41,29.53,12.69,45.93-12.8-3-24.84-6.64-37.14-8.58-12.06-1.9-24.4-3.54-37.47.16,10.87,18.23,13,37,5.92,57.63a133.9,133.9,0,0,1-47.54-23.43c-14.21-10.91-25.15-24.53-33.61-42.72-5.93,21.4-18.72,34.08-38,42.35-1.2-10.12-2-19.26-3.41-28.31-2.78-18.61-8.33-36.36-17.85-52.68-10.8-18.52-26.15-31.63-48-39.11,4.38,23.75-1,43.74-18.07,60-1.22-.9-2-1.17-2.12-1.62-6-21-18.49-38.18-32.69-54.34-12.75-14.52-25.75-28.87-37.62-44.1-9.15-11.72-16.71-24.68-25.82-38.37-2.19,16.6-5.56,32-17.42,45.2-15.54-21.15-21.37-45.08-25.44-70.64-6.18,7.2-11.2,14-17.25,19.84s-13.84,9.06-22.92,10.56c0-2.26-.42-4.19.06-5.87a146.41,146.41,0,0,0,5-51.39c-.55-7.77-2.19-15.34-7-21.58-6.76-8.83-11.28-10.46-19.22.38-2.3,3.14-4.35,7-4.83,10.82-1.3,10.2-2.72,20.57-2.16,30.76.59,10.54,3.45,21,5.29,31.43.22,1.27.27,2.57.52,5.11-19.06-2.55-30.21-14.34-40.12-31.63-4.75,26.52-10.25,50.57-25.11,71.14-9.46-6.64-14.36-18.51-18.5-44.89-1.69,2.61-3,4.33-4,6.22-9.82,18.3-22,34.92-35.66,50.53-8.33,9.54-16.87,18.9-25.22,28.42-13.5,15.4-25.25,31.86-30.78,52-.14.52-.89.87-1.36,1.3-15.35-10.14-20.84-26.2-19.75-58.6a65.11,65.11,0,0,0-7.4,2.31c-18,8-31.48,20.89-41,38-12.25,22-17.09,46-19.24,70.81-.2,2.3-.45,4.6-.82,8.28-19.08-8.14-32-20.7-38.09-42.51-8.24,18.11-19.14,31.6-33.14,42.48a132.83,132.83,0,0,1-47.62,23.7c-8.15-20.11-5.15-38.72,5.68-57.83-26.12-4.51-50,1.47-74.87,9.58,2.21-23.11,6.29-44.48,24-60.22,13.66-12.1,30.48-14.16,47.9-12.62,11.27,1,22.48,2.88,33.77,3.72a70.87,70.87,0,0,0,19.69-1.7c-20.87.5-40.18-3.1-56-17.83-15.42-14.37-22.3-32.68-24.1-53.32-46.94-7-73.74-31.25-71.45-81.09-4.38,12.29-1.9,24.42-.5,36.5,1.44,12.56,3.59,25,1.57,37.78-2.75,17.31-11.23,30.48-26.42,39.08-13.84,7.84-28.94,11.23-45,12,3-12.88,6.65-24.94,8.56-37.26,1.87-12,3.64-24.28-.27-37-18.41,10.26-37,13.61-57.59,5.28,10.79-35.74,30.53-63.5,65.68-80.7-20.73-6.07-33.84-18.61-41.43-37.37,14.87-2.43,29.2-3.7,42.89-7.35a187.13,187.13,0,0,0,37.08-14.4c16.74-8.63,28.86-22.35,36.55-39.71,1-2.36,1.7-4.88,3-8.67-23.77,4.56-43.64-.67-60.68-18.69,3.22-1.25,5.23-2.13,7.31-2.82,15.45-5.08,28.87-13.69,41.16-24.08,10.69-9,21.09-18.42,31.55-27.71,17-15.11,35.1-28.65,55.26-39.31,1.35-.72,2.56-1.69,5.45-3.63-17.89-1.36-32.87-5.58-46.72-16.91,21.15-16.1,45.22-21.49,70.57-25.84-7-6-13.8-11-19.56-17s-9.12-13.76-10.79-23.91c4,.82,7,1.39,10,2.06,17.67,3.9,35.42,6.16,53.49,3,11.67-2,17.81-6.22,22.87-16-5.43-11.68-16.23-14.79-27.74-15.9a139.49,139.49,0,0,0-52.39,4.75c-1.55.45-3.19.58-5.84,1a36.43,36.43,0,0,1,10-23.55c5.72-6.17,12.66-11.22,19.83-17.44-25.13-4.25-49.18-9.81-70.58-25.7,13.48-11.3,28.5-15.5,44.95-16.89-1-1.61-1.26-2.38-1.75-2.64-29.35-15.17-53.51-37.16-78-58.8a255.1,255.1,0,0,0-30.95-23.56c-8.24-5.28-17.79-8.52-27.6-13.07,16.29-17.47,35.94-23,59.92-18.43-1.1-3.39-1.74-6.13-2.86-8.65-8-18-21-31.44-38.24-40.84-20.22-11-42.12-16.32-64.9-18.37-4-.36-7.95-.5-11.93-.74,1.18-15.29,17.23-31.15,39.08-38.33-7.74-5.12-15.39-9.36-22-14.81a122.38,122.38,0,0,1-18.26-18.36,145.79,145.79,0,0,1-14.42-22.71c-4-7.62-6.79-15.85-10-23.63,12.9-9.2,30.21-8.15,58.24,3.3,4.16-25.51-1.67-49.49-9.78-74.1,19.43,1.56,37.17,5,52.32,16.52C663,720.29,666.9,739.78,665.37,761c-.82,11.29-2.79,22.49-3.74,33.77a77.08,77.08,0,0,0,1.14,20.1c-.88-49.32,25.59-73.54,72.39-80.24,1.73-21.22,9-40.14,25.39-54.56s35.81-18.06,57-15.32c-9.85-5.15-20.07-3.48-30.2-2.6-11.93,1-23.84,3.16-35.77,3.24-27.26.17-45.37-12.82-54.75-38.36-3.9-10.61-6.59-21.55-6.46-34.41,24.07,8.39,48,13.17,74.12,9.91-9.74-18.59-14.13-37.42-5.29-58.41,35.42,10.83,63.07,30.21,80.52,65.58,6.17-20.4,18.54-33.5,38-41.6.88,7.64,1.62,14.4,2.44,21.14,2.48,20.36,7.84,39.84,17.84,57.87,9.87,17.8,24,30.95,42.9,38.77,1.47.62,3,1,4.27,1.44,1-11.15,1.12-22,3.25-32.49s8.35-19.44,16.9-26.69c.89.76,2,1.23,2.23,2,5.46,20.58,17.69,37.12,31.39,52.77,9.22,10.54,18.69,20.86,27.8,31.48a264.36,264.36,0,0,1,32.92,47.6c.87,1.63,2,3.15,4,6.37,1.17-18.36,5.59-33.54,17-47.28,15.83,21.73,21.51,45.85,26,73,9.41-17.55,21-29.2,40.52-32.65-.8,3.9-1.4,7-2.07,10.11-3.76,17.34-6.14,34.75-3.14,52.5,1.3,7.73,3.74,14.89,9.71,20.32,4.69,4.26,7.55,4.32,12.15,0,7-6.53,9.49-15.15,10.25-24.29a144,144,0,0,0-4.82-52.4,53,53,0,0,1-1-5.65,35.88,35.88,0,0,1,23.43,9.91c6.22,5.73,11.25,12.74,17.54,20.06,3.91-25.17,10-49.06,25.45-70.91,11.61,13.46,15.66,28.74,17.32,47.35,4.71-8.12,7.92-13.88,11.35-19.51,12-19.74,27.2-37,42.54-54.18,6.22-7,12.5-13.87,18.39-21.1C1335.4,660.07,1344.28,645.3,1348.86,627Zm-258.7,599.17c-6.23-.57-11.55-.6-16.69-1.61-15.14-3-26.64-11.62-35.72-23.82-5.36-7.21-10.57-14.56-16.13-21.62a33.83,33.83,0,0,0-20.87-12.7c-18.59-3.5-33,12.55-27.34,30.61,3.38,10.72,10.88,17.33,21.6,20.23,4.43,1.2,9,1.77,14,2.7,1.38,17.85-11,26.81-23,36.33,7.81,5.56,16,8.73,24.74,8,8.35-.69,16.52-3.51,25.55-5.58-2.77,17.27-11.3,30.22-27.06,38-19.59,9.71-44.05,6.29-60.81-8.2-10.65-9.21-17.27-21-21.82-34.1-1-2.89-2-5.79-3.79-11-5.08,20.71-18.76,29.24-35.51,34.42a70.17,70.17,0,0,0-10.18,4.12c-11.35,5.56-19.78,13.5-21.32,26.89-.1.88-.78,1.69-1.51,3.19-12.32-4.76-16.2-14.6-16.64-26.61-8,3.39-11.81,6.48-18,14.39-9.85,12.57-15.37,27.12-19.43,42.37a77.12,77.12,0,0,1-2.75,7.3c-18.05-9.86-22.44-27.1-27.14-45.47-15.3,13.51-22.2,29-20.91,47.77,1.43,20.82,13.59,34.83,30.74,45.16,3.63,2.18,7.42,4.1,11.41,6.29-.95,1.35-1.33,2.3-2,2.82-17.52,13-39,13.06-56.62.14-3.62-2.66-7.15-5.44-11.09-8.45-5.53,33,11.88,65,50.79,69.75,15.15,1.84,29.88-.46,44.39-4.76,2.33-.69,4.79-1,7.6-1.5-9.42,43.66-85.23,65.2-117.73,18.87-.07,1.17-.43,2.23-.14,3.08,9.23,27.61,24,51.12,49.31,66.95a26.08,26.08,0,0,1,8.49,8c14.87,24.6,37.08,39.57,63.4,49.32a64.79,64.79,0,0,0,7.2,1.81c-28-22.85-30.39-51.47-19.61-82.71,6.37-18.47,24.66-33.78,39.13-34.39-1,3.94-1.91,7.77-3,11.54a98.76,98.76,0,0,0-3.44,39.56c4.8,39.45,38.09,56.38,69.63,50.46-7.86-10.53-16.8-20.22-17.79-33.92-1-13.43,2.42-25.28,12.26-36.39,9.49,19.81,21.32,36,42.86,41.57,20.64,5.3,44.14-3.14,55.25-20-17.51-4.29-34.77-9-44-26.43,12.7-4.88,24.73-8.8,36.12-14.08,11.81-5.47,21.53-13.8,29.26-26.54-13.65-.37-23.51-4.15-28.27-17.4,18.37-1.72,27.43-13.21,33-28.56.91-2.5,1.92-5,2.76-7.5,4.87-14.74,13.58-25.83,28.9-30.75.66-.21,1.14-1,2.09-1.83-3.47-1.07-6.35-1.88-9.16-2.86-13.11-4.56-24.86-11.22-34-21.89-15.38-17.87-18-44.49-6.12-64.34,8.2-13.7,20.49-21,38-23.67-9.64,17.78-10.67,34.06.44,50.6,9.59-12.13,18.58-24.46,36.32-23,1,5,1.53,9.65,2.75,14.08,2.94,10.7,9.59,18.19,20.33,21.52,18.08,5.6,34-8.91,30.45-27.5a32.36,32.36,0,0,0-11.29-19.49c-5.91-4.86-12-9.56-18.3-13.88C1100.49,1268.28,1088.72,1251.27,1090.16,1226.12Zm166.93,53.6c18.65,2.26,31.56,11.11,39,25.57,10.51,20.34,7.32,44.91-8.13,62.44-9.3,10.57-21.13,17.09-34.3,21.5-2.6.87-5.16,1.86-9.57,3.46,15.07,4.49,24.52,12.8,29.79,25.6,1.4,3.38,2.79,6.78,3.95,10.25,5.58,16.68,14.22,30.16,34.62,32-2.5,6.26-5.67,11-10.89,13.37s-11,3.34-17.25,5.15c15.48,23.61,39.7,31.66,64.79,38.49-4,10-11,15.51-19.29,19.24-7.92,3.58-16.38,6-25.52,9.17,13.44,14.73,29,21.74,47.79,20.26,20.39-1.6,34.21-13.42,44.42-30.22,2.35-3.85,4.42-7.86,6.75-12a17.31,17.31,0,0,1,2.82,2.36c13.39,18.57,13.14,39.06-.7,57.36-2.46,3.27-5,6.47-7.93,10.25,26.8,4.67,61.15-6.42,69.07-45.42,3.29-16.19,1-31.78-3.28-47.34-.9-3.27-1.85-6.53-3.22-11.37,21.11,7.61,34.81,20.19,41,39.36,9.89,30.55,6.25,58.24-20.93,79.9,28.69-8.54,52.9-22.66,68.91-48.21a36.18,36.18,0,0,1,11.78-11.73c25.71-16.3,40.14-40.63,48.43-69.62-21.33,27.63-49.11,31.39-79.89,21.73-19.51-6.13-31.9-20.15-39.77-40.72,9.21,2.24,16.49,4.36,23.92,5.75,17.37,3.27,34.34,2.54,50.82-5,20.33-9.26,35.49-35.78,28.7-63.15-10,7.9-19.65,16.31-33,17.43-13.48,1.14-25.41-2.31-36.67-12.07,19.68-9.85,36.25-21.6,41.63-43.72,5-20.53-4.48-46.29-20-53.94-9.35,30.72-14.86,39.12-27.94,42.44-6.37-24.73-14.71-48.32-39.19-64.67-.33,13.63-4.06,23.82-16.44,28.38-7.27-21.8-11.68-26.27-33.59-34.37-3.44-1.27-6.87-2.56-10.24-4-10.6-4.51-18.31-11.91-22.61-22.74a43.75,43.75,0,0,0-3.14-5.26c-1.48,4.52-2.43,7.69-3.56,10.81-4.49,12.41-11,23.48-21.18,32.18-17.73,15.22-43.65,18.05-63.46,6.66-14.12-8.13-22.09-20.37-24.32-38.45,17.69,9.66,33.94,10.49,50-.32-21.18-19-23.69-23.18-22-36.7,3.79-.7,7.69-1.34,11.55-2.15,9.69-2,17.22-7.21,21.54-16.21,4.52-9.4,4.62-18.87-2.34-27.2-6.65-8-15.42-9.7-25.36-7.34-8.58,2.05-15,7.14-20.15,13.88s-10.17,14-15.45,20.89c-11.88,15.4-27.15,24.28-47.09,23.91a24.89,24.89,0,0,0-4.33.79c1.33,25.53-11.4,43-31.61,56.44a152.34,152.34,0,0,0-18.07,14.15c-7,6.35-10.28,14.6-9.89,24.16.55,13.53,10.73,22.85,24.3,22.26,14-.6,25.37-11.59,27.81-26.9.5-3.18.79-6.4,1.22-9.93,8.46-.72,15.44,1.35,21.12,6.27s10.54,10.61,16.08,16.29C1267.34,1313,1266.15,1296.9,1257.09,1279.72ZM854.92,1003.4c3.82,18.29,9.74,25.35,26.39,32.14,5.54,2.26,11.27,4.1,16.75,6.5,10.49,4.6,18.4,11.85,22.48,22.84a62.82,62.82,0,0,0,3,5.84c1.36-4.22,2.28-7.41,3.4-10.52,4.57-12.73,11.12-24.18,21.55-33.12,22-18.9,55.21-18.15,74.44,1.81,7.54,7.83,12,17.1,13.17,29.77-17.55-9.3-33.76-10.52-50.16,1,12.77,9.49,24.34,18.87,23,36.69-3.78.41-6.73.57-9.63,1.08-12.81,2.29-22.22,8.88-26.1,21.75-4.87,16.18,6.19,30.59,23.07,30.39,10.4-.13,18.65-4.78,25-12.65,5.86-7.25,11.16-14.94,16.78-22.39,12-15.88,27.66-24.62,47.84-24.63a17.89,17.89,0,0,0,3.48-.65c2.9-30.18,8-38.87,33.24-57.1,5.39-3.9,10.72-7.92,15.81-12.21,6.37-5.38,9.87-12.51,11-20.7,2.34-16.07-10.55-28.93-26.59-26.65-12.3,1.75-21.44,10.19-24.68,23-1.11,4.43-1.8,9-2.73,13.65-17.73.69-26.92-11.34-36.22-23.43-10.85,16.78-10.09,32.9-.37,50.68-17.89-2.57-30.28-10.2-38.45-24.33-11.44-19.77-8.75-45.75,6.41-63.49,8.9-10.42,20.24-17.14,33.07-21.57,3-1,6-2.13,10.74-3.8-3.33-1.52-5-2.34-6.64-3-10.12-4.07-17.1-11.37-21.55-21.15-1.93-4.24-3.56-8.62-5.09-13-5.69-16.39-14.62-29.29-34.05-31.1,4.67-13.16,15-16.75,28.54-17.39-16.24-24.53-40.19-32.78-65.93-39.45,9.51-18.74,27.09-23,44.85-27.79a38.66,38.66,0,0,0-2.71-3.94c-20.61-21.89-54.72-23.41-76.23-2.59-6.56,6.35-11,14.86-16.45,22.39-1.22,1.7-2.42,3.41-3.74,5.26a45.62,45.62,0,0,1-1.65-59.38c2.59-3.2,5-6.56,7.81-10.27-34-5.57-60.47,11.53-68.27,43.36-4,16.28-2.08,32.41,2.46,48.35,1,3.59,1.74,7.27,2.73,11.45C809.23,813.8,790,738.4,836.56,706.26a19.5,19.5,0,0,0-3.3.32c-28.47,9.14-52.34,24.47-68.4,50.49a23.52,23.52,0,0,1-7.46,7.65c-24.67,14.8-39.49,37.13-49.24,63.43a64.37,64.37,0,0,0-1.75,7.09c21.54-26.44,48.72-30.48,79-21.11,19.86,6.16,32.77,20.09,40.33,40.75-11.24-2.46-20.8-5-30.53-6.58-16.59-2.59-32.61-.31-47.36,8.08C727.45,868,715.72,895.89,722.46,918c10-8.82,20.32-16.94,33.84-18.12s25.07,3.16,35.83,12c-28.21,17-37.58,26.94-41.54,43.53-5,20.77,3.45,44.4,20.13,55.08C775,993,779.54,975.77,798.1,966c6.92,26.23,15.18,50.2,39.69,66C837.88,1018.17,842,1008.42,854.92,1003.4Zm753.82-167.69c.17-.25.52-.53.49-.75a16.34,16.34,0,0,0-.6-2.86c-9.14-27.71-24.15-51-49.48-66.79-3-1.86-6.12-4.29-7.86-7.23-14.46-24.44-36.31-39.39-62.2-49.27-2.9-1.11-6-1.77-9-2.64,27.86,22.78,31.08,51.14,20.16,82.58-6.45,18.57-24.65,34.14-39.16,35.14,2.13-9.69,4.79-19.3,6.3-29.09,6.72-43.74-20.57-75.77-62.86-74.08-2.06.08-4.09.91-7.21,1.63,9.46,10.39,17.1,20.57,18.35,33.8,1.27,13.43-3,25.11-12.27,36.46-9.79-20.18-21.52-36.34-43.25-41.86-20.36-5.18-43.7,3-55.22,20.1,17.65,4,34.77,8.82,44.79,27.34-26.18,6.75-50,15.1-65.49,38.53,20.65,5.06,22.4,6.23,27.76,18.57-18.48,1.21-27.4,13.38-33.18,29q-1.39,3.74-2.68,7.52c-4.86,14.34-13.44,25.17-28.32,30.09-.37.13-.49,1-1,2.17,3.08,1.07,6.12,2.11,9.14,3.18,10.82,3.81,20.75,9.15,28.86,17.37,15.54,15.76,21,34.43,15.18,55.93-5.38,20-22.37,34.09-42.33,34.72,8.28-16.64,9.95-32.9-1.71-49.31-9.39,12.79-18.83,24.28-36.64,23.23-.43-3.81-.63-6.76-1.11-9.66-1.65-10-6.25-18.22-15.22-23.48-9.23-5.42-20.56-5-28.23,1-8.72,6.84-10.09,16.12-7.89,26.15,1.77,8.14,6.75,14.43,13.27,19.42,7.14,5.47,14.51,10.63,21.66,16.09,15.23,11.6,23.54,26.84,23.92,46.18a42.45,42.45,0,0,0,.72,5c25.37-1,42.73,11.31,56,31.19a161.32,161.32,0,0,0,14.08,18.13,30.06,30.06,0,0,0,25,10.29c13.75-.72,23.26-12,21.7-25.71-1.53-13.52-11.77-23.83-26.24-26.3-3.22-.56-6.49-.82-10.51-1.31-1.21-18,11.06-27.39,23.7-37.13-8.91-4.68-16.5-8.65-25-7.65-8.35,1-16.53,3.37-25.56,5.3,2.4-16.84,10.75-29.22,25.52-37.08,20.22-10.77,45-7.55,62.45,7.79,10,8.81,16.57,19.87,20.93,32.34,1,3,2.11,6,3.8,10.88,1.73-3.67,2.73-5.59,3.57-7.58,3.94-9.37,10.8-15.9,19.89-20.12a126.28,126.28,0,0,1,13-5.24c16.78-5.63,30.08-14.51,31.95-34.4,13,4.94,17,15,17.23,28.73,24.58-16.12,32.78-40.11,39.7-66.2,18.4,10.11,23.28,27.19,27.28,44.87,16.54-11.52,24.94-34,20.57-53.48-4.18-18.62-16.25-30.85-32.3-39.84-3-1.67-6-3.25-9.4-5.07,19.38-17,42.27-15.22,58-3.59,3.86,2.86,7.68,5.78,11.86,8.93,6.51-32.36-11.76-60.65-43-68.18-16.74-4-33.08-1.75-49.3,2.82l-10.65,3C1500.28,811.44,1574.77,788.53,1608.74,835.71Zm29.54,32.71c0-10.06.14-18.37,0-26.68-.38-17.81-3.29-35.2-10.54-51.55-9.86-22.21-28-33.62-51.61-37.75,21.16,12.66,36.92,29.73,43.62,53.68,6.44,23,7.92,46.17-2,71.12-2.5-5-4-7.86-5.42-10.78a79.54,79.54,0,0,0-22.23-27.92c-12.55-9.89-26.69-14.93-42.8-13.14-6,.68-12.12,1.7-18.41,7.1,4.43-.36,7-.63,9.64-.77,31.7-1.78,58.18,14.86,70.35,44.22,5.7,13.75,7.25,27.82,1.74,41.87-4.49,11.45-9.82,22.57-14.93,33.76-.85,1.86-2.5,3.35-4.21,5.58-6.46-26.89-16.51-40.35-31.94-42.79,2.76,3.06,5.22,5.74,7.62,8.48a53.71,53.71,0,0,1,13.06,28.69c3,21.5-1,41.59-15.59,58-11,12.39-23.58,23.42-35.84,34.65-5.21,4.77-11.39,8.49-17.13,12.69,7.62-21.45,15-42.14,11.29-65.15-17.15,67.17-62.78,108.79-122.44,138,25.19-27.31,50.34-54.55,58.81-92.4-10.24,20.21-21.41,39.81-36.25,57.13-17.38,20.3-40.47,39-51.88,41.72a24.75,24.75,0,0,1,1-2.76c12.69-25.83,8.28-50.56-5.37-74.33a50.91,50.91,0,0,0-29.92-23.64c-5.81-1.8-11.77-3.36-17.47-1.54,9.37,5.41,19.35,10,27.95,16.46,9.12,6.85,13.91,17.06,16.57,28.75-27.2-5.21-33.46-4-39.57,7.77,2.43.16,4.74.28,7.05.49,10.81,1,18.7,6.67,24,15.83,9.56,16.38,4.61,38-11,48.89-2.66,1.85-5.36,3.63-8.9,6,17.8,9.1,27,22.57,24.14,41.74-2.93,19.55-16.26,28.44-36.58,29.55,12.47,14.88,26.2,11.47,40.95,6.08-2.59,12.43-7.31,22.45-16.14,29.2-8.64,6.61-18.68,11.37-28.51,17.18a30.65,30.65,0,0,0,5.62.58c14.69-1.14,27-7.34,36.39-18.59,14.19-17,19.53-37,17.44-58.73-.86-9-4.59-17.68-7.21-27.22,13.35,7.48,25.44,16.25,35.69,27,10.52,11.07,20.76,22.62,29.58,35.06,8.38,11.83,14.77,25.06,22,37.68l1.75-.8c-3.79-9.13-7-18.55-11.5-27.34-10.72-21-25.74-38.8-42.26-55.43-2.3-2.3-4.37-4.82-6.55-7.25,60.31,28.81,105.78,70.47,122.62,137.56.61-7.76,1.3-15.31.42-22.68-.86-7.22-3-14.34-5.17-21.31s-5.06-13.59-7.63-20.38c19.23,11.18,35.8,24.51,49.81,40.73a128.55,128.55,0,0,1,12.54,18c11.67,19.43,12.6,57.92-9.36,77.94-1.16,1-2,2.46-4,5,11.48-2.28,17.77-9.08,22.17-17.17,4.3-7.92,7-16.71,10.8-26,8.94,16.88,18.12,33,21,51.75a40.26,40.26,0,0,1,.26,9c-2.19,30.69-29.31,64.68-67.16,64.48-5.21,0-10.42,0-15.81,0,.46.92.6,1.67,1,2a18.1,18.1,0,0,0,3.55,1.77c16.49,6,32.18,3.65,47-5.09,13.6-8,23.35-19.65,30.18-33.81,1.34-2.8,2.83-5.53,4.66-9.06,5.56,9.4,7,18.63,7,28s0,18.74-1.62,27.83a107.12,107.12,0,0,1-8.48,27.5,94.21,94.21,0,0,1-16,22.7c-6,6.46-13.75,11.34-21.4,17.45a21.22,21.22,0,0,0,3.22.35,15.4,15.4,0,0,0,2.94-.55c23.6-7.09,40.14-21.48,47.92-45.41,6.16-19,8-38.39,7.27-58.18-.12-3.42,0-6.86,0-12.13,8,10.83,14.37,20.16,21.54,28.77,10.44,12.52,15.88,26.65,17,42.84a256.5,256.5,0,0,0,3.92,28.67c1.45,7.77,2.59,9.08,7.35,14.34-4.72-20.75-6.52-41,.76-62.69l37.09,27.1a35.52,35.52,0,0,0-7.7-11.7c-9.7-9.6-19.48-19.15-29.61-28.31-14.64-13.25-28.26-27.35-38.9-44.09-1.07-1.68-1.68-3.67-3.08-6.83,20.89,9.37,40.79,15.48,62.3,15.32-30.28-6.87-57.06-19.73-77.74-43.59-20.31-23.43-36.56-48.82-41.33-82.51,18.11,13.91,34.5,27,56.31,28.9-7.68-5.17-15.87-9.47-23.45-14.65-8-5.45-15.51-11.55-23-17.68q-51.35-42.24-102.53-84.69c-1.27-1-2.17-2.56-4.33-5.16,23.74,5.94,45.86,9.32,68.37,3.49-40.51-3.87-78.45-14.8-112-38.51a39,39,0,0,1,10.49,2.36c11.48,3.84,23.2,6.2,35.36,5,10.79-1.09,19.63-5.61,26.23-14.54-10.82,1-20.65,2.66-30.49,2.78-16.25.2-31.43-4.84-46.36-10.91-14.17-5.76-28.43-11.4-43-16-9.44-3-19.48-4.12-29.26-6.08a17.77,17.77,0,0,1,8-3.12,194.36,194.36,0,0,0,51.68-14.84c7.3-3.26,14.58-6.64,22.11-9.28,20.77-7.29,41.87-11.07,63.62-4.06.65.2,1.56-.4,3.2-.87-5.65-7.56-12.68-11.43-21-13.32-14.62-3.3-28.41.59-42.14,4.9-3.35,1-6.62,2.34-9.92,3.52a12.23,12.23,0,0,1,5-5.5,228.06,228.06,0,0,1,95.6-32.81c3.89-.44,7.75-1.16,11.62-1.75-.1-.9-.19-1.8-.29-2.7-10.92-.09-21.9-.83-32.76-.08-10.61.73-21.11,3-32.84,4.75a26.56,26.56,0,0,1,2.6-3.45c39.1-32.22,78.06-64.6,117.44-96.46,8.47-6.85,18.46-11.82,27.79-17.6,2-1.24,4.14-2.23,6.21-3.34-22.68,1.41-39.8,14.36-58.22,28.8,3.61-27,14.83-47.87,29-67.54,21.69-30.12,50.13-50,86.92-57.63-10.42-1.86-20.11.83-29.63,3.5-9.72,2.72-19.15,6.48-30.33,10.35,2.91-4.64,4.74-7.78,6.8-10.77,10.25-14.94,23-27.6,36.21-39.87,11.71-10.85,22.79-22.38,34-33.73,1.38-1.39,2-3.53,3-5.32-6.69,4-12.23,8.76-18.14,13.06s-12.37,8.27-19.36,12.89c-6.58-22-5.06-42.29-1.12-62.85-2.89,5.23-5.65,10.54-6.72,16.17-1.88,9.79-2.94,19.75-3.93,29.68-1.13,11.47-3.84,22.45-10.52,31.91C1657.47,843.35,1648.28,855.08,1638.28,868.42ZM1447.16,677.34c11.47-8.62,21.49-15.81,31.12-23.47a68.34,68.34,0,0,1,37.54-14.75c6.64-.58,13.29-1.1,19.9-1.87,12-1.39,19.92-4.34,26.59-10-21.12,5.25-41.37,6.64-62.27.06,6.91-14,16.45-25.25,25.34-37.24a25.51,25.51,0,0,0-9,5.48c-10.54,10.65-21.08,21.3-31.22,32.33-12.22,13.29-25,25.86-40.1,35.93-2.64,1.76-5.42,3.3-9.57,5.8,3.86-11,7.63-20.15,10.27-29.64s5.6-19.36,3.57-29.71c-6.89,29.77-20.52,55.4-44,75.41-23.11,19.7-48.05,35.49-81.38,40.13,14.91-18.47,27.65-35.8,30.43-59.67-1.63,2-2.46,2.62-2.8,3.45-6.35,15.26-16.06,28.35-26.47,41q-44.21,53.61-88.45,107.18c-1,1.19-2.23,2.18-4.62,4.49,1.89-12.47,3.7-23.12,5.07-33.83,1.64-12.87.61-23.6-3.31-34.28-3.58,42.38-14.88,80.33-38.71,113.86.87-5.24,2.66-10.17,4.11-15.2,3.52-12.23,6.36-24.57,3.19-37.37-2-8.21-5.55-15.47-14.26-20.74a61.89,61.89,0,0,0,1,6.63c3.15,11.09,3.34,22.22,1.73,33.64a144.94,144.94,0,0,1-12.49,40.91c-9.16,19.76-16,40.2-18.6,61.93-.23,1.93-1.41,3.74-2.48,6.47-2.7-12.59-4.43-24.18-7.77-35.29a297.29,297.29,0,0,0-12.84-33.54c-11.35-25.9-17.76-52.24-8.12-82.19-11,7.59-15.36,16.7-16.4,27.64-1.16,12.16,1.22,23.87,5.12,35.34,1.14,3.33,2.21,6.68,3.32,10l-1.89.75c-11.35-16.44-19.5-34.51-25.77-53.47-6.34-19.15-9.58-38.94-12-59-5.91,22.52-2.12,44.73,3.35,68.39-2.41-1.94-3.3-2.44-3.9-3.17-31.39-38-62.94-76-94-114.28-7.49-9.25-13.3-19.88-19.82-29.91-1.31-2-2.33-4.24-3.49-6.37,1.17,22.19,14.24,38.58,28,56.55-33.43-4.68-58.6-20.77-81.9-40.79-24.11-20.71-37.21-47.59-44.11-78.1-.27,21.72,6.22,41.76,14.11,61.67a56.13,56.13,0,0,1-10.84-6c-14.89-10.32-27.47-23.11-39.75-36.35-10.85-11.7-22.43-22.73-33.8-33.93-1.37-1.34-3.48-1.92-5.93-3.22l27.7,37.87c-21.87,7.23-42.23,5.28-62.85,1.8,5.07,2.87,10.19,5.4,15.6,6.42a282.45,282.45,0,0,0,28.68,3.82c15.06,1.28,28.44,6.21,40.24,15.82,7.74,6.3,16.05,11.89,24.06,17.86,1.59,1.18,3,2.63,5.32,4.71-7.82,0-14.13.05-20.45,0a151.56,151.56,0,0,0-50.1,7.78c-22.64,7.6-36.71,23.29-43.67,45.77a54.21,54.21,0,0,0-1.24,7c13.64-20.52,30.89-35.35,54.43-42.26,25.38-7.46,56.11-6,68.19,3.28-5.59,3-11.37,5.62-16.63,9-18.17,11.77-30.72,27.53-33.16,49.76-1,9.61.41,18.86,6.24,27,.75-7,.45-13.9.8-20.77,2-39.93,49.29-73.44,86.74-58.6,11.12,4.41,21.9,9.68,32.77,14.7,1.84.85,3.33,2.46,5.57,4.16-26.43,6.07-40.18,16.13-42.51,31.29,2.94-2.58,5.37-4.72,7.82-6.85,9.09-7.88,19.65-12.15,31.61-13.54,22.58-2.62,42.13,4,59.14,18.68,16,13.82,29.38,29.93,41.36,47.27.65.94,1,2.12,2.21,5.05-21.9-10-42.67-17.08-65.71-13.44,67.24,16.86,108.86,62.4,138.09,122-27.1-24.86-54.17-49.57-91.28-58.5,12.64,7.9,26.2,14.48,38.31,23.08a289.14,289.14,0,0,1,34.93,29.72c15,14.77,23.14,27.56,25,35.62-28.78-15.23-57.88-7.21-75.43,3.16-16.19,9.57-25.92,23.67-27.57,42.73-.17,2,.66,4,1.29,7.59,12.46-31,27.36-45.55,44.94-44.93-7.63,20.3-4.13,32.79,6.84,37.8.5-3,1.09-5.91,1.46-8.85,1.12-8.9,6-15.42,13.11-20.38,16-11.2,39.48-7,50.79,8.87,2,2.81,3.89,5.69,6,8.74C1173.21,958.91,1185,952.53,1201,956c18.8,4,27.72,16.54,27.92,37,7.28-6.06,11.47-12,11.16-19.7-.28-7.07-2.13-14.07-3.42-21.82,19.67,5.27,32.86,16.66,39.87,35.13,1.33,3.51,2.83,7,4.25,10.43,2.39-18.49-4.59-33-18.41-44.05-17-13.53-36.78-18.6-58.1-16.21-8.61,1-16.93,4.5-26.82,7.26,24.69-40.54,58.89-68.4,100.6-88.14A138.57,138.57,0,0,0,1250,866.13c-21,10.67-38.84,25.66-55.53,42.12-2.6,2.57-4.77,5.87-10,7.75,30.8-60.66,72.55-106.32,139.71-123.4-23.36-3.68-44.14,3.95-66.07,13.58,9.34-16,26.65-37.38,40.82-49.26,7.34-6.15,15.32-12,23.89-16.13,24.92-12.14,53.87-7.25,74.17,11.48,1.31,1.2,2.8,2.21,4.2,3.31-6.64-20.3-23.26-27.2-43.82-31.67a258.85,258.85,0,0,1,37.22-18.08c41.53-16.29,84.29,19.74,88,52,1,9,1.2,18.13,1.76,27.08,6.33-9.65,8.17-22,4.85-35-5.59-21.9-20.13-36.26-39.55-46.41-3-1.59-6.16-3-10.36-5.09,12.14-6.73,23.78-8,35.4-7.24a222.43,222.43,0,0,1,35.44,5,62.9,62.9,0,0,1,30.43,16.52c8.2,8.16,15.34,17.38,23.89,27.23-6.13-27.28-20-46-45.89-54.83-18.22-6.21-37-8.31-56.1-7.78C1457.8,677.44,1453.26,677.34,1447.16,677.34ZM609.78,866c30.24,6.88,56.05,20.88,76.25,44.67,19.49,23,35.07,47.78,38.47,78.73-17.57-12.8-34.64-25.64-57.19-27.14,17.39,7.46,32,19,46.42,30.81q52.85,43.56,105.66,87.16c1,.79,1.71,1.83,4.34,4.7-24.12-6.09-46.12-9.75-68.62-4.07a57.71,57.71,0,0,0,11.39,2.25c35.35,3.86,68.16,15,98.2,34.12,1.58,1,2.94,2.35,6.11,4.92-9.9-3.05-17.44-5.69-25.16-7.67-10.4-2.66-21-4.12-31.59-1-7.89,2.29-15.09,5.79-20.25,15.46,18.93-7.32,36.46-6.65,53.68-1.64A310,310,0,0,1,883,1140.39a208.12,208.12,0,0,0,52.65,15.09,85.26,85.26,0,0,1,8.35,2c-6.72,2.35-13.27,3.44-19.8,4.63-18.51,3.37-35.69,10.59-52.72,18.24-18.22,8.18-37.19,12.76-57.26,11.1-6.49-.53-12.89-2.27-20.2-3.61,6.51,10.08,15.56,14.3,26.2,15.44a74,74,0,0,0,30.58-3.46q8.88-2.83,17.74-5.7c-34.18,25-73,36.57-114.59,40.36,22.7,5.9,45,2.37,69.21-3.52a56.92,56.92,0,0,1-4.1,4.62c-38.83,32-77.51,64.2-116.67,95.81-9,7.25-19.59,12.49-29.48,18.6-1.71,1.06-3.57,1.85-5.37,2.77,22.77-1,39.63-14,58.19-28.61-4.84,33.79-21,59.12-41.26,82.52-20.86,24.09-47.85,37-78.43,43.73,21.89.46,42.1-6.24,62.27-14a48.58,48.58,0,0,1-5.43,10c-10,14.68-22.49,27.14-35.48,39.19-11.7,10.86-22.87,22.3-34.14,33.62-1.38,1.37-1.95,3.54-2.9,5.34,12-9,23.64-17.58,37.27-25,1.5,7.6,3.39,14,3.88,20.58.52,6.92,0,14-.58,20.92-.48,6.21-1.58,12.37-2.41,18.55,2.54-2.09,4.1-4.36,4.59-6.84,1.94-9.76,4.44-19.54,5.09-29.41,1.22-18.58,6.43-35.13,19-49.34,5.92-6.71,10.59-14.51,15.9-21.77,1.18-1.61,2.66-3,5-5.67-.31,6.12-.61,10.43-.74,14.75-.55,18.77,1.23,37.23,7,55.24,7.63,23.88,23.82,38.71,47.5,45.8,2,.59,4.11.49,6.17.7-20.6-13.36-35.42-30.53-42.4-54.12-7.7-26-6.33-57.34,3.55-68.23,1.64,3.36,3.19,6.65,4.85,9.89,6.82,13.38,16.4,24.31,29.42,31.88,14.54,8.45,29.92,10.85,46.07,5.07,1.77-.64,3.27-2,6.15-3.88-5.54,0-9.2,0-12.85,0-33.59.2-61.44-21-69.08-53.78a62.29,62.29,0,0,1-.71-24.7c3.09-16.82,11.68-31.59,20.63-47.87,1.31,5,2.07,8.5,3.13,11.9,4,12.76,10.32,23.86,22.45,30.62,1.65.91,3.71,1.09,7.57,2.16-3.62-4-5.63-6.16-7.61-8.37A54.85,54.85,0,0,1,736,1367.23c-4.72-23.47,1-44.23,15.9-62.64,13.55-16.73,30.11-30.13,47.48-42.6,1.62-1.17,3.65-1.77,6.87-3.29-10.38,21.85-17.15,42.69-13.63,67.48,17.15-69.13,62.61-110.91,122.34-140.07-1.92,3.42-4.72,6.06-7.2,9-10.13,11.92-20.63,23.57-30.1,36A122.93,122.93,0,0,0,857.38,1271a37.35,37.35,0,0,0-.79,5.83c19.79-41.42,47.49-75.08,88.17-99.62-.64,2.8-.67,3.81-1.09,4.63-12.86,25.33-8.89,49.9,4.34,73.46,9.22,16.41,23.86,25.67,42.92,27.17,1.82.15,3.72-.74,5.59-1.15-22.81-7.64-39.13-20.28-45-45.78,15.29,5.56,29,8.77,40.19-5.46-24.23-6.18-32.55-12.45-35.35-27.4-3.8-20.33,4.64-34.84,23.94-44.78-17.65-9.31-27.09-22.43-24.37-41.73,2.86-20.22,16.29-28.89,36.48-29.83-12-15-25.88-11.67-40-6.54,1.3-8.9,3.42-14.07,7.66-20.44,8.93-13.43,22.74-19.64,37.21-25.07-17.75-1.92-32.54,4.15-43.1,17.75-18.45,23.76-23.76,50.11-12,78.78.77,1.86,1.22,3.85,1.82,5.78a157.93,157.93,0,0,1-28.53-19.23c-25.52-21.6-44.12-48.47-58.56-78.44,8.67,37,33.29,63.79,58,90.62-59.81-29.38-105.44-71.09-122.3-141-1.66,13.47-1.47,24.59,1.58,35.4s7,21.4,11.36,34.29c-8.81-6.62-16-11.47-22.53-17.07-8.6-7.36-17.26-14.79-24.82-23.16a124.37,124.37,0,0,1-16.66-23.54c-11.09-20.38-10.92-55.74,10.88-76a33.17,33.17,0,0,0,3.18-4l-1.39-1.6c-4.29,2.87-9,5.28-12.79,8.69-10.32,9.26-14.27,22-17.52,36.83-7.6-13.52-13.58-25.64-18.34-38.44-14.77-39.7,18-81.27,50.55-86.53,9.65-1.56,19.57-1.49,29.81-2.19a32.75,32.75,0,0,0-4.09-2.35c-16.66-6.65-32.68-4.73-48,4-13.71,7.86-23.51,19.43-30.52,33.49-1.41,2.84-2.88,5.66-5.22,10.25-7.35-16.36-8.19-31.59-6.67-47.23,1.56-16.15,5.84-31.33,14.37-45.3,8.28-13.53,20.74-22.6,33.52-31.42-26.84,3.62-45.91,19.78-54.52,45.32-6.38,18.89-8.1,38.38-7.25,58.18.16,3.73,0,7.47,0,12.82-7.33-10-13-19.11-19.93-27-12.79-14.48-18.11-31.27-19.38-50.2-.69-10.19-3.46-20.25-5.56-30.31-.47-2.22-2.06-4.21-3.13-6.31,2.82,20.38,5,40.22-2.92,61.37L589.42,789.5a35.38,35.38,0,0,0,7.24,11c9.93,9.84,19.93,19.63,30.27,29.05C641,842.44,654.29,856,664.74,872c1.33,2,2.3,4.31,4.35,8.2C648.75,872.24,630.23,864.92,609.78,866Zm831,750.57c3.47-1.74,7-3.38,10.41-5.23,18.95-10.32,33.11-24.79,38.09-46.39,2.8-12.13,2-24.13-5.26-36,0,6.52.06,11.79,0,17.07-.57,43.93-42.51,71.51-74,67.45-18.9-2.44-34.7-12.28-52.25-21,32.82-11.83,42.53-19.21,43.1-32.5-2.64,2.39-5.07,4.66-7.56,6.85a55.28,55.28,0,0,1-25.63,12.75c-25.08,5.21-46.8-1.65-65.84-18.09-15.23-13.15-28-28.51-39.55-44.9-1.2-1.7-2.06-3.63-3.37-6,11.69,3.91,22.24,7.89,33.05,10.92s21.72,3.27,34.76,1.53c-69.54-17.07-111.3-62.54-140.84-121.9,14.25,11.33,27.8,23.51,42.17,34.62s30.38,19.73,48.8,22.84c-20-10-39.11-21.37-56.1-36-20.19-17.37-37.89-39.3-41.32-51.65,12.44,6.37,25.12,9.69,38.75,8.28,19.07-2,36.58-7.6,50.07-22,10.12-10.81,15.28-23.53,13.22-38.62a73.88,73.88,0,0,0-5.25,11.5c-6.33,15.74-17.43,26.58-33.48,32.16-1.91.66-4.09.51-6.6.78,8.18-22.61,3-34.56-7.3-38.58-.18,2.39-.32,4.66-.52,6.93-.84,9.6-5.56,17-13.3,22.45-15.83,11.22-39.55,7.2-50.87-8.58-2.08-2.89-4-5.86-6.64-9.63-9.5,18.68-23.75,27.4-43.72,23.61-18.79-3.56-26.45-17-27.45-36.21-14.62,12.19-12,25.82-5.91,41.14-25.85-6.09-38.67-22.62-45-46-1.35,1.79-2,2.26-2.06,2.8a17.11,17.11,0,0,0-.15,4c1.51,17.83,9.83,32,24.9,41.19,23.78,14.46,48.88,18.87,75.13,6.16,1.1-.53,2.33-.8,5.56-1.89-24.77,41.15-58.65,68.8-99.91,88.33,18.68-3.34,34.73-12,49.23-23.23,14.23-11.06,27.66-23.14,43.1-36.18-15.12,30.71-32.79,57-56.73,78.74s-51.33,37.49-83.33,44.6c23.2,4.07,44.26-3.16,65.21-11.91-11,18.17-23.9,34.25-39.46,47.92a122.9,122.9,0,0,1-22,15.36c-20.58,11.23-56,11-76-10.52-1.15-1.24-2.72-2.08-5.59-4.23,3.25,11.53,9.7,18.23,18,22.63,8,4.26,16.79,7.07,25.86,10.77-14.1,7.57-27.75,15.06-43,19.16a55.73,55.73,0,0,1-28.64.17c-32.65-8.27-53.74-35.71-53.51-69.45,0-3.72,0-7.43,0-11.14a7,7,0,0,0-3.66,3.94c-6,16.46-3.76,32.15,5,47,8.19,14,20.17,23.76,34.63,30.74,2.46,1.19,4.83,2.58,7.77,4.17-14.21,7.77-33.79,9.67-56.59,5.69-28.93-5.06-51-20.18-65.87-46.09a15.29,15.29,0,0,0,.13,7.12c7,23.3,21.6,39.38,45,47,19,6.19,38.4,8,58.21,7.1,3.71-.17,7.44,0,12.54,0-10.14,7.44-19.44,13.35-27.65,20.5-14.3,12.44-30.84,17.56-49.4,18.84-10.19.7-20.25,3.44-30.32,5.52-2.18.45-4.13,2-6.19,3.09,20.23-2.63,39.9-4.77,60.38,2.61-2.81,4.5-5.3,8.73-8,12.8s-5.87,8.09-8.77,12.15c-2.67,3.75-6.72,6.6-7.77,11.57a51,51,0,0,0,12.11-8.76q14-14.28,27.41-29.08c12.6-13.88,26.08-26.71,41.85-36.95,2-1.32,4.35-2.17,8-3.94-9.57,21.26-15.77,41.45-15.48,63.27,6.72-30.72,19.67-57.81,43.91-78.72,23.38-20.16,48.58-36.39,82-41-5.65,7.64-10.27,13.26-14.18,19.34a135.26,135.26,0,0,0-10,18.37c-2.81,6.32-5.55,12.9-4.11,20.2,5.69-13.82,14-25.88,23.25-37.22q46.59-56.84,93.45-113.44c1-1.23,2.59-2,4.54-3.48-7.18,37.14-7.82,53.83-2.34,69.08,3.25-42.72,14.77-81.53,39.19-115.88a71.28,71.28,0,0,1-3.37,12.24c-3.93,11.45-6.33,23.14-5.27,35.32,1,11.08,5.45,20.21,15.07,27.07-1.23-9.32-3-17.78-3.33-26.29-.71-17.63,4.2-34.18,10.81-50.39,5.78-14.16,11.46-28.41,16.1-43,3.08-9.71,4.25-20,6.37-30.5a12.82,12.82,0,0,1,1.77,2.78,42.82,42.82,0,0,1,1.18,5.86,194.06,194.06,0,0,0,14.75,51.7c3.5,7.92,7.15,15.81,9.94,24,7,20.51,10.46,41.34,3.2,62.65-.22.63.34,1.53.7,2.93,12.52-9.79,16.39-22.56,14.63-36.75-1.31-10.47-4.71-20.69-7.23-31-.58-2.36-1.37-4.65-2.05-7a157.78,157.78,0,0,1,27.69,54c5.55,19.66,9.26,39.85,13.73,59.65,5-22.19,1-44.21-3.39-66.39a37.2,37.2,0,0,1,6.42,6.44q33.07,40.13,66.11,80.26c17.72,21.54,37.38,41.69,48.84,67.92a44.28,44.28,0,0,0-4.88-20.86,191.73,191.73,0,0,0-10.59-19.21c-3.73-5.89-8.16-11.33-13.38-18.48,33.13,4.81,58.09,20.68,81.17,40.45,23.39,20,36.76,45.83,43.89,75.43.91-20.56-6.4-39.07-12.94-58.22a39.62,39.62,0,0,1,9.49,5c14.94,10.24,27.69,22.88,39.88,36.2,9.89,10.8,20.24,21.18,30.57,31.57,2.52,2.53,5.78,4.32,8.7,6.45l1.35-1.64a165.76,165.76,0,0,1-26.8-36.64c20.61-7.35,40.35-5.14,60.29-1.56-1.71-1.77-3.47-3.34-5.47-3.75-10.72-2.18-21.43-5-32.28-5.87-17.79-1.48-33.82-6.26-47.58-18.21-7-6.09-15-11-22.55-16.53-1.59-1.17-2.94-2.66-5.66-5.14,6.27.32,10.58.64,14.9.75,22.19.56,44-1.52,64.48-10.83,21.78-9.91,33-27.86,37.07-51.12-12.71,20.57-29.22,36.33-52.82,43.19C1487.17,1626.23,1464,1627.82,1440.74,1616.58Zm-187.1-416c17.95-9.54,27.27-28.9,24.85-49.43-1.84-15.62-12.59-31.25-23.56-34.27,7.81,17.89,8.63,22.14,6,32.62-20.43-3.46-40.28-1.8-60.36,8.31,20.55,10.67,40.93,10.8,61.47,8.61C1263.82,1179.3,1259.37,1189.56,1253.64,1200.6Zm-95.57-86.34c10.4-19.52,10.87-40,8.19-62,7.21,1.1,12.85,1.53,18.24,2.9,5,1.28,9.85,3.55,15.94,5.83-11.22-17.71-28.64-26-48.5-23.94-15.81,1.61-30.9,11.69-36,24.51,10.65-5.52,21-10.23,33-7.71C1146.73,1083.61,1149.06,1099.4,1158.07,1114.26Zm-98.14,2c-16,10-24.06,25-23.28,43.83.69,16.62,8.36,29.94,22.94,38.89-3.28-10.62-8.51-20.68-5.95-32.59,21,2.3,41.12,2.11,61.1-8.62-20.36-10.6-40.63-11.13-61.14-8.52C1052.52,1137.6,1053.48,1133.36,1059.93,1116.27ZM1167,1262.06c0-11,.61-21.28-.17-31.49a70.46,70.46,0,0,0-9.31-30.16c-5.12,11-8.41,20.78-9.07,31.11-.65,10.17-.14,20.41-.14,31.25-2.13,0-4.14.37-6-.07-8.55-2.07-17-4.36-25.42-6.53,6.28,14,26.31,24.41,44.57,22.9,17-1.41,34.14-12.53,37.14-24.09C1182.53,1262.08,1178,1263.1,1167,1262.06Zm36.28-149.14c-4-22.44-9-31.47-19.15-35.52.37,7.81,1.58,15.8.9,23.62a98.44,98.44,0,0,1-5.18,23.23c-2.46,7.18-6.43,13.84-9.74,20.73,21.83-12.58,44.1-18.36,70.77-12.19C1230.69,1118.61,1218.21,1114,1203.31,1112.92Zm-.55,89.89c15.23-1.26,28-5.49,37.74-19.77-27.21,6.07-50.25,0-72.75-16,4.63,9.08,9.09,16.07,11.83,23.68a99.73,99.73,0,0,1,5.52,24.2c.75,7.88-.47,15.95-.87,25C1197.29,1230.23,1201.73,1217.78,1202.76,1202.81Zm-89.92-90c-15.41,1.25-27.89,5.63-35.95,18.55,25.85-5.15,48.7,1.9,68.92,15.47-4.57-11.33-9.67-22.49-13.57-34.06s-2-24-.22-37.41C1118.13,1085.05,1114,1098,1112.84,1112.84Zm-37.75,70.23c9.89,14.78,23.42,18.36,37.71,20,1.31,15.16,5.55,27.87,20,37.67-3.13-13.94-4.25-26-.58-37.59,3.6-11.38,8.52-22.34,13.21-34.36C1124.24,1183.32,1101.68,1188.92,1075.09,1183.07Z"/><path d="M1157.69,1602.13c18.32,31.26,41,55.45,82,49.62-.59,8.34-6.91,12.12-11.62,16.78.39.86.5,1.78.92,2,15.08,6,23.56,17.91,29.07,32.46,2.12,5.6,4.05,11.27,6.19,16.87a56,56,0,0,0,14.87,22.2c8.37,7.48,18,11.18,29.39,9.52,1.83-.27,3.68-.4,5.9-.64-5.92,13.79-12.26,18.11-37.71,26.22-.07.31-.32.75-.2.92,11.07,15.19,11.88,31.78,7.78,49.53-2.31,10-2.92,20.36-4.46,31.81-9-3.93-14.36-11-18.72-19.76-5.42,2-9,8.25-16.63,7,2.27-17.17-5.41-31.69-11.8-46.66-2.43-5.69-3.44-12-5.32-18.77-6.55,5.38-13,10.64-23.09,12,5.89-22.89,9.54-45.3-2.6-67.13-1.55,8.68-2.67,17.41-11,24.14-1-3.19-1.92-5.51-2.53-7.91-2.81-11-5.67-22.18-12.75-31.24-15-19.19-20.78-19.32-35.21.19-5.57,7.53-8.07,17.37-11.63,26.3-1.46,3.65-2,7.66-3.15,12.09-9.9-5.06-9-15-12-24.59-11.39,22.9-7.91,45-2.45,67.92-9.91-1-16.49-6.34-24-13-.24,13.1-5.22,23.16-10,33.29a69.89,69.89,0,0,0-6.57,28c0,1.89-.41,3.77-.82,7.21l-14.91-8.56c-4.62,7.44-9.4,15.76-18.78,19.25-2.52-16.19-5.3-31.78-7.26-47.48-1.17-9.48,1.6-18.49,6.29-26.81,1.42-2.53,3.06-4.93,5.18-8.31-17.31-2.47-31.19-9-40-25.52,2.46.14,3.92.08,5.33.32,15.06,2.55,27-3.28,35.92-14.79,4.43-5.68,7.56-12.48,10.65-19.06,2.68-5.71,4.28-11.91,6.7-17.74,5.92-14.29,11.37-19.92,29.22-30.63-4.76-4.86-11.18-8.59-12-17.14C1116.62,1657.18,1139.59,1633.82,1157.69,1602.13Zm-87.36,146.26c-15.65,27.9-25.16,55.1-28,86.82,4.66-13,5.7-24.81,13.1-35.55,1.09,8.37,2,15.07,2.82,21.77l2.42,0c-.45-14.74,1.31-29.13,6.23-42.93s11.66-26.5,23.37-39.14c-.18,14.21-.65,26.45,8.18,36.26-2.41-17.34.1-33.88,6.32-50,6.4-16.57,18.4-35.17,27.67-42.36-5.65,13.78-9.34,27.11-8.75,41.66,6.53-18.68,15.74-35.18,34.1-45.16,17.72,9.57,27.1,25.52,33.57,43.88,1.87-14-3.57-26.3-6.28-39.21,21.69,26.44,36.85,55.17,31.33,93.17,9.75-12,8.69-24.45,9.24-38.42,21.28,25.31,30.52,52.53,28.89,83.7l2.66-.27,2.49-22.62a54.54,54.54,0,0,1,7.16,14.21c1.64,4.57,2.9,9.27,4.32,13.91-2.16-27.83-11.15-53.49-25.65-79.28,8,3.24,13.66,5.86,19.55,7.88,9.18,3.15,11.51,3.15,18.4,1.43-24.92-9.54-35.22-16.44-56.53-37.89-18.64-18.77-38.5-44.73-41.26-54.07,10.56,0,21.29,1,32.62-6.08-14-1.72-25.4-4.81-34.72-12.16s-17.66-15.8-26.9-24.21c-13.94,19.92-32.67,33.39-59.44,36.51,11.45,7.12,22.54,5.59,33.17,6.35-.31,1.44-.26,2.21-.61,2.69-26.57,36.72-53.38,73.21-99.71,89.92C1044.87,1760.7,1056.39,1754.46,1070.33,1748.39Z"/><path d="M663.81,1239.85c-8.58-1.38-12.44-7-16.66-11.83-.88.37-1.82.47-2,.87-6,15.08-17.72,23.7-32.34,29.15-5.3,2-10.77,3.57-15.9,5.91-5.43,2.47-10.94,5.06-15.72,8.55-14.15,10.33-20.64,24-16,42.08-14.53-5.72-21.5-16.08-26.19-38.63-2.39,1.33-4.61,2.5-6.76,3.77-10.73,6.33-22.06,8.68-34.51,6.39-13.37-2.45-26.87-4.2-41.07-6.37,3-9.3,11.15-14.17,19.25-18.72l-9.36-16.29c19.27,1.86,33.94-5.41,48.95-11.82,5.71-2.44,12.06-3.39,18.65-5.16-4-6.74-10.86-12.69-11.34-22.93,22.25,5,44.43,8.74,67.82-2.58-9.63-2.91-19.09-2.79-25-11.76,6.35-1.81,12-3.31,17.54-5,9.63-2.92,19-6.61,26.29-13.79,12.7-12.54,13-15-.38-28.06-7.06-6.87-16.17-10.44-25.45-13.32-5.66-1.75-11.41-3.21-17.85-5,6-9.16,15.07-9.54,25.78-11-23.46-12.67-45.76-8.84-69-3.15,1.08-9.59,6-16.07,11.2-22-13.06-5.09-25.63-10.67-38.65-14.83-8.35-2.67-17.37-3.25-27.61-5l8.13-14.35c-13.78-9.23-15-10.51-18.55-19,14.66-2.27,29.34-4.77,44.08-6.77,13.51-1.83,25.69,2.06,37.74,11.3,2.72-17.06,8.88-31.09,25.29-40a52.07,52.07,0,0,1,0,5.9c-2.2,14.69,3.66,26.18,14.79,35,5.14,4.08,11.19,7.16,17.18,10,6.31,3,13.06,4.94,19.57,7.49,13.87,5.46,24.35,14.59,30.18,29.63,5.65-5.11,9.36-11.6,17.71-12.72-5.07,40.39,17.78,63.75,49.91,82C682.22,1176,658.37,1198.67,663.81,1239.85Zm-182.35,33.21c15.72-.66,30-4.18,43.72-9.06s27.17-11.09,41.39-17c-5.47,12.34-11.82,23.74-9.49,37.44,6.27-23.15,21.34-40.35,37.6-56.7,19.62-19.73,45.84-39.68,54.92-41.84-.67,10.72-.83,21.32,5.91,32.84,1.62-14.08,4.66-25.47,12-34.82s15.74-17.72,24.38-27.3c-19.8-13.58-33.2-32.39-36.5-59.29-7.08,11.64-5.63,22.66-6.36,34.34-21.56-14.6-41-29.69-58.07-47.54-14.4-15-27.49-30.93-33-51.66-.06-.21-.94-.19-1.77-.35-1,13.17,5.14,24.39,10.6,37.59-7.79-3.87-13.81-7.12-20-9.89s-12.87-5.52-19.49-7.74-13.41-4-20.22-5.56c-6.37-1.45-12.86-2.34-19.31-3.47,4.56,2.93,9.39,4.15,14.06,5.81,4.83,1.71,9.5,3.84,14.25,5.79-.17.71-.34,1.43-.5,2.14-3.81,0-7.64-.27-11.42.08s-8.25-.23-12.13,4.44c32.28-2.11,59.2,7.63,84.64,28.63-14.31.57-26.78-.66-36.25,7.65,11,.74,22.42.26,33.21,2.59,10.6,2.28,20.89,6.76,30.74,11.48,14.19,6.79,21.77,13,26.85,20-13-4.18-25.25-9.22-39.72-8,33.68,17.71,38,21.12,44,34.85a53.2,53.2,0,0,1-19.51,20.9c-7.87,4.75-16.44,8.36-24.69,12.47.21.68.43,1.35.65,2l41.72-9.71c-28.07,22.4-57.19,37.68-95.48,32.2,11.79,10,24.42,8.26,37.65,9.73-24.38,20.83-51.39,29.29-81.48,30a41.73,41.73,0,0,0,10.66,3c3.22.57,6.83-.83,12.08,2.37Z"/><path d="M1112.35,589.1c3.69-8.22,3.89-17.31,12.78-23.55,1.17,4.21,2.19,7.84,3.17,11.47,3.25,12,7,23.87,16,32.87,12.63,12.7,14.72,12.07,26.67.3,9.58-9.44,13.28-22.09,16.75-34.67.86-3.13,1.61-6.3,2.59-10.15,8.55,6.41,10,14.76,10.37,23.75,9.83-8.7,11-27,4.27-66.24,9.42.36,15.72,6.39,21.59,10.93,4.35-11.32,9.14-22.21,12.7-33.49,3.16-10,4.94-20.48,7.52-31.57,5.13-.78,8.68,4.45,14.2,7.56,4.12-8.36,9.46-15.71,19.07-20.24l.91,7.1c1.11,8.58,1.88,17.22,3.4,25.72,4.29,24,3.61,29-8.38,49.94,16.47,3.12,31,9.15,39.27,25.74-25.8-2.49-41.44,7.31-50.91,31.24-1.47,3.71-2.79,7.48-4.14,11.24-8.1,22.41-12.59,27.82-33,39.42,5.19,4.59,11.08,8.64,12.76,17.19-40.85-5.09-64.12,18.05-82.57,50.67a96.14,96.14,0,0,0-32.1-39.16c-14.57-10.55-30.57-14.15-48.62-11.17-.58-9.13,6.71-12.15,11-17.12-.25-.57-.36-1.38-.73-1.52-15.42-6.12-24.14-18.2-29.64-33.18-2.3-6.25-4.43-12.57-7-18.7-4-9.37-9.76-17.42-18.24-23.27-9.27-6.39-19.37-8.42-30.49-5,3.77-13.26,13.17-19.77,37.14-26.29-3-7.54-6.56-15-8.84-22.75-1.36-4.64-1.36-9.93-.83-14.81.83-7.58,2.87-15,3.94-22.61,1-7.17,1.43-14.42,2.18-22.42,10.12,3.57,15,11.78,19.87,20.32,4.62-3.6,8.49-8,15.72-8-1.65,16.93,5.27,31.36,11.63,46.05,2.58,6,3.66,12.56,5.6,19.53,6.65-4.18,12.45-10.71,22.37-11.2-.37,2.75-.49,5.2-1,7.53-3.69,15.42-5,30.89-1.07,46.45C1109.26,581.13,1111,585.08,1112.35,589.1Zm71.4,60.09c19.67-28.62,39.81-54.2,66.21-74,8.41-6.29,18.42-10.48,27.78-15.46,2.46-1.31,5.26-2,7.9-3-14-1.55-26,3.89-38.75,8.92,13.34-25,22.5-50.89,25.1-78.86-4.21,9.39-5.07,20.14-12.6,29.86-1.06-9.17.74-17.3-4.29-24.26.05,15-1.09,29.68-6.15,43.85s-11.85,27.16-23.16,39.58c-.9-13.48.6-26-9.26-37.13,5.37,38-10.16,66.88-32.1,93.49,1.39-6.85,3.89-13.35,5.43-20.08,1.5-6.52,2-13.27,3-19.92-17.09,31.15-21.3,36.53-35.56,43.24a50.74,50.74,0,0,1-20.91-19.22c-4.78-7.89-8.45-16.45-13.42-26.31.1,15.86,4.3,29,8.23,42.2-22.1-26.84-37.76-55.89-33.23-92.65-3.14,5.36-5.76,10.7-6.89,16.34-1.19,5.92-1,12.14-1.47,20.16-21-24.84-29.65-51.9-29.07-82.31l-2.23.11q-1.38,10.68-2.78,21.36l-1.89.2c-3.54-10.71-7.07-21.42-11-33.39.77,16.05,4.37,30.27,9.27,44,4.81,13.5,10.9,26.55,16.62,40.28-24.07-10.17-28.66-11.28-38.1-9.5,46.5,15.81,73,53.79,102.09,92.77-7.61,0-12.83-.26-18,.07-6.27.4-9.68,1.88-15.74,6,25.83,2.88,44.09,17,58.53,36.65,30.06-31.09,24.87-26.17,59.52-37.86C1206.9,648.48,1196.18,649.47,1183.75,649.19Z"/><path d="M1652.5,1075.75c7.94,1.77,12,7.06,16.32,12.67.85-1,1.63-1.5,1.91-2.23,5.39-13.65,15.81-22,29-27.3,6.79-2.75,13.75-5.06,20.57-7.75,8.49-3.34,16.13-8.08,22.06-15.1,8.39-10,12.4-21.16,7.93-34.43,13.25,3.54,19.41,12.39,26.85,38.13,1.47-.85,2.91-1.55,4.2-2.46a44.57,44.57,0,0,1,32.21-8.12c15.08,1.92,30.07,4.51,45.67,6.9-3.89,9-11.3,14.31-20.19,18.74,3.63,5,8.09,8.88,8,15.51-2.67.22-4.91.55-7.16.56-9.5.05-18.31,2.68-27,6.37-10,4.25-20.39,7.78-30.91,11.74,4.09,6,10.61,12.06,10.87,22.17-17.62-4.34-34.55-7.86-51.83-3.53a63.53,63.53,0,0,0-14.75,6c8.75,2.13,17.66,3,24.19,11.58-3.51.95-6.29,1.71-9.08,2.45-11.29,3-22.78,6.06-31.88,13.73-17,14.3-17.56,19.07.24,32.84,7.89,6.11,18.41,8.9,27.9,12.83,3.64,1.51,7.7,2,12.16,3.09-5.07,9.71-14.84,9.16-24.82,12,22.88,11.44,44.85,8,67.51,2.69,0,10-6,15.92-12,23.61,15.61.48,27.45,9.08,40.87,13.14,8.18,2.47,16.87,3.24,26.75,5l-8.48,14.45c8.11,4.14,15.56,9.49,20.14,19.39-2.82.32-4.93.55-7,.8-8.58,1-17.37,1.18-25.7,3.24-17.81,4.39-34.37,3.48-49.88-9.27-3.58,17.14-9.23,32-26,40,0-6.74,1-13.11-.21-19-3-14.11-12.93-22.95-25.33-29.11a139.47,139.47,0,0,0-17.6-7c-17.07-5.73-31.61-14.35-38-32.64-10.59,10.2-10.59,10.2-17.72,11.75,4.39-39.87-18-63.22-50.41-81.21,2.33-1.41,4.41-2.82,6.62-4,17.79-9.29,30.44-23.48,39.41-41.2a47.14,47.14,0,0,0,4.75-23.24C1652.38,1085.15,1652.5,1080.85,1652.5,1075.75Zm30.89,55.52c26.61-21.91,55.52-37.63,94-32.15-12.12-9.61-24.22-8.71-38.37-9.13,25.73-21.35,53-30.88,86.47-28.6-9.13-6.21-17.69-3.73-25.3-5.29l-.22-2.23,28.82-9.85c-28.07,2.11-53.91,11.44-79.88,26.07,3.13-8,5.74-13.94,7.83-20.1,2.91-8.55,3.18-12.66,1.79-21.88-4.68,20.86-15.5,35.86-28.09,49.84-16.82,18.68-36.22,34.36-56.66,48.82-2,1.45-4.33,2.54-7.31,4.26-.34-11.57.65-22.33-5.44-32.57-2.54,8.24-4.07,16.15-7.41,23.22a93.92,93.92,0,0,1-13,20c-5,6-11.3,10.83-17.67,16.77,20.95,14.56,34,33.48,37.49,59.82,6.85-11.36,5.62-22.19,6.19-33.62a35.86,35.86,0,0,1,4.88,2.69c15.33,12.27,31.26,23.89,45.75,37.08,18.34,16.7,34.3,35.49,41,60.31.14.52.87.87,1.61,1.57.73-14.16-5-26.47-10.64-39.14,14.3,5.93,27.52,12.1,41.22,16.9,13.47,4.71,27.35,8.49,43.68,8.8-12.52-4.27-24.23-5.39-33.66-12.93a58.2,58.2,0,0,1,10.85-.77,19.53,19.53,0,0,0,10.15-3c-39.59-3.62-68.63-14.4-79.86-30.56,12.16-.35,24.53.75,35.18-9-35.11,3.44-76.3-11.21-93.46-33.27,13.64,5.21,26.68,9.38,41.08,8.28-19-6.19-34.87-16-44.73-33.62,4.87-9.26,11.11-16.25,19.1-21.18s16.43-8.63,25.86-13.48C1709.36,1122.79,1696.56,1127.45,1683.39,1131.27Z"/><path d="M1146.58,2163.39c-8.3,28.71-24,51-54,63.13-.33-7.41-.7-13.51-.84-19.63-.14-6,0-11.94,0-18.94-13.14-.94-27.33-3-39.64-15.68,25.07-1.33,45.52-9.2,63.29-23.59,9.78-7.92,18.45-16.89,25.68-30.31-20.2,10.93-39,17.3-60.65,8,9-4.06,17.69-6.87,25.11-11.69s14-11.27,20.14-17.72c6.4-6.67,11-14.71,15.33-24.67-7.27,6-12.88,11.34-19.24,15.59-6.54,4.37-13.84,7.52-22.6,7.76,27.23-35.93,31-53.8,21.57-103.23a48.63,48.63,0,0,0,21.15-27.15c4.48,5.32,5.09,10.38,4.81,15.6-1.56,29.52-6.79,58.18-20.43,84.8a26.24,26.24,0,0,0-1.44,3.66c-.08.21.28.57.75,1.41,13.3-15.14,22.91-32.35,32.23-51.82,9.25,19.73,19.3,37.08,33.68,51.66-2.46-5.29-5.08-10.51-7.34-15.88-9.8-23.32-13.61-47.95-15.54-73a22.25,22.25,0,0,1,4.39-15.92c3,5.23,5.59,10.27,8.75,14.89s7,8.91,12.26,15.55c-2.59,14.16-5.38,32.13-2.56,50.56a83,83,0,0,0,24.48,48.13c-16.15-1.53-28.54-9.06-38.74-21.58,1.93,18.91,25.41,40.05,56.85,51.92-7.31,5.46-17,7.54-29.5,4.52-9.82-2.37-19.26-6.31-29.87-9.9,20.79,31.49,48.91,49.42,86.29,52.34-4.8,9.12-7.55,10.28-37.76,16.18v37.76c-15.2-5.14-26.15-13.79-35.39-24.92s-14.92-24.12-20.37-37.82a28.94,28.94,0,0,0,0,4.75c2.51,14.74,9.28,27.62,17.09,40.16a151,151,0,0,1,12.5,23.77c3.3,8.29,2.4,16.77-4.21,25-5.85-12.86-12.17-24.46-26.78-32.47,7.24,16.58,10.15,31.91,8.64,47.93a85.36,85.36,0,0,1-17.07,44.42c-20.1-29.46-22-59.34-8.75-91.63-12.32,7-15.21,10.48-26.33,31.35-5.08-6.25-7.83-13.11-5.09-20.44a159.63,159.63,0,0,1,12.36-26c7.21-12.05,14.41-24,17.39-37.91.58-2.69.8-5.45,1.19-8.17Zm35.85-8.34c24.06,17.52,34.06,22.12,46.5,21.16-36.09-12.48-54.83-40.83-71.27-72.81-16.06,32.52-35.37,60-69.67,73.08,12.8-.51,16.49-2.24,44.69-20.64-3.45,17.51-11.45,32.11-19.62,46.85,3.08-2.05,5.88-4.33,7.64-7.24,5.5-9.08,11.1-18.15,15.7-27.69,4-8.36,6.65-17.39,10.13-26,2.57-6.36,5.47-12.6,11.18-17.26,6.61,5.35,9.27,12.21,12,18.92,3.13,7.7,5.74,15.61,8.82,23.34,5.09,12.77,11.78,24.61,21.37,34.61a34.81,34.81,0,0,0,4.62,3.5C1194.47,2189.7,1187,2174,1182.43,2155.05Zm-24.74-90.64c-8.72,21-19.17,38.43-36,51.44,14-3.75,25.11-12.41,36.37-21.23,10.31,9,20.89,16.46,33.85,20.11C1175.94,2101.64,1166.41,2084.28,1157.69,2064.41Zm.06,133,33.32,42.65c0-8.65-5.13-14.7-9.35-21.19-4.36-6.68-9-13.17-13-20-3.88-6.64-7.11-13.68-10.8-20.88-5.09,9.44-9.36,18.07-14.28,26.3-4.44,7.4-9.65,14.33-14.41,21.54-3,4.63-5.91,9.39-6.82,17.1Zm-.24,46.47c-8.52,21.81-8.15,38.5.73,47C1166.42,2279.34,1166.35,2262.72,1157.51,2243.92Z"/><path d="M244.84,1124.57c14.66,14.15,32.35,23.86,50.26,32.63-14.22,8.8-27.81,17.13-41.3,25.61a29,29,0,0,0-8.21,7.75,25.2,25.2,0,0,0,4.6-1.37c26.66-13.56,55.31-18.86,84.84-20.17,4.65-.21,9.38,1.53,16.32,2.78-7.17,4.35-12.5,6.91-17,10.51s-7.83,8-12,12.43c-36.53-7.35-72.16-8.91-101,21.49-1.9-11.29,5.17-24.38,21-40.46-13,5-23.93,13-33.4,23.19s-15.08,22.37-19.1,35.63c-9.86-20.72-3.81-39.46,6.32-57.88-23.94,6.28-48.23,45.21-52.79,84.17-9.09-3.93-11.48-9.5-16.16-37.65H89.41c11.3-30.48,34.27-45.63,63-54.35-.34-.73-.69-1.45-1-2.17-5.34,1.28-11.05,1.76-15.94,4-10.84,5-21.19,11-31.88,16.37-8,4-16,8.19-24.39,11.08-7.3,2.52-14.26.18-20.48-5.72,13-5.23,24.28-11.82,31.93-25.88C58,1180,28.27,1178,0,1159c7.46-9.36,25.09-16.43,43.21-18.11,15.89-1.48,31,1.45,47.21,8.34-7.15-14.55-19.29-20.42-31.81-26.54,8.17-6.53,16.69-7.45,25-4.06a153.43,153.43,0,0,1,23.74,12.54c12.82,8,26.11,14.7,41.16,17.29a6.53,6.53,0,0,0,4.18-.82c-28.69-9-51.4-24.6-63.66-55.07,13.5-.7,25.75-2.31,38.59.78,1-14.93,2.86-28.9,15.49-40.67,2.93,38.89,20.75,67.28,52.55,87.42-9-19-16.19-38.07-5.68-59.21a82.54,82.54,0,0,0,27.45,44.1c7.58,6.43,15.79,11.85,25.5,15.15-12.16-10.81-20.8-23.35-22.37-40.18,29.54,29.72,65.17,28.47,102.37,20.92,6.76,9.9,15.33,17.46,27.74,21.06-6.58,4.92-12.73,5.54-19.17,5C301.5,1144.2,272.12,1139,244.84,1124.57Zm-106,103c13.16-34.39,41.06-53.49,73.4-69.83-32.61-16.32-60.37-35.54-73.35-70.07,1.2,17.52,10.23,31.21,22.17,45.41-19.44-4.29-35.18-12.16-50.2-22.22a31.21,31.21,0,0,0,6.06,7.22c9.62,8.44,20.67,14.52,32.53,19.16,8.67,3.4,17.48,6.48,26.08,10,5.75,2.39,11.59,4.92,15.95,11.44-4.46,2.88-8.3,6.09-12.7,8.06-8.19,3.68-16.65,6.73-25.07,9.87-12.24,4.56-23.83,10.29-34,18.53-2.53,2-4.75,4.47-7.1,6.72,8.31-3,15.42-7.24,22.85-10.8,12.68-6.06,17.26-7.12,24.2-6.54C148.41,1197.07,140.46,1210.81,138.83,1227.62Zm59.85-34.53,1.66,1.35c12.29-17.56,30.1-27.63,50.92-36.74-20.42-8.42-37.19-18.39-50.28-33.89,3.42,13.44,11.78,23.65,19.72,33.9-4.36,6-8.75,11.43-12.41,17.31S201.85,1187.05,198.68,1193.09ZM76.3,1123.22c-.23.45-.46.9-.7,1.34l42.49,33.3-43.57,34.05c23.14-7.33,39.7-26.05,63.18-32.83-19.7-12.06-38.26-23.46-56.89-34.77C79.55,1123.55,77.81,1123.57,76.3,1123.22ZM23.54,1158.7c16.41,9.2,31.83,5.16,48.14-.15C55.06,1149.11,35.23,1149,23.54,1158.7Z"/><path d="M1149.19,90.68C1135.43,57.4,1138,28,1156.64,0c18.63,14.82,23,51.94,10.77,88.76,8.32-2.56,8.32-2.56,26-29.34,6.27,7.49,7,16,3.6,24.26a164.54,164.54,0,0,1-13,24.61c-7.63,12.27-14,25-16.53,39.32a9.62,9.62,0,0,0,.46,5.13c9.23-28.56,24.64-51.53,53.62-62.92,3,8.16,3.41,23,.88,37.65,14.09,1.74,28.9,2.55,40.27,15.59-38.51,3.24-67,20.83-88,52.67,10.77-3.65,20.34-8,30.37-10s20.45-2,30.88,4.69c-30.42,6.83-48.69,26.17-60.69,52.84,10.73-12.77,24-20.85,42-24.07-1.77,2.44-2.56,4-3.75,5.1-15.47,14.6-22.19,33.18-22.84,53.76-.38,12.21,1.62,24.49,2.65,36.74.22,2.61.86,5.18,1.43,8.54a48.69,48.69,0,0,0-21.2,27.27c-4.7-6.15-5.41-12.29-4.83-18.74,2.54-28.35,7.15-56.17,20.51-81.8a5.84,5.84,0,0,0,.36-3.73c-13.51,14.39-22.57,31.61-31.88,50.12-8.8-18.28-17.73-34.55-31-48.37a23.71,23.71,0,0,0,1.14,4.68c12.21,25.69,17.36,53,18.88,81.17.28,5.29,0,10.47-3.24,14.56l-22.23-27.79c7.22-35.44,8.35-71.34-24-101.5,18.32,2.89,31.35,10.59,41.69,23.76-1.93-19.64-28.71-43.58-59.66-52.92,22.19-10,41.33-3.94,60.6,6.64-11.44-26.95-42.66-46.35-85.42-53.84,6-9,10.32-10.8,37.8-15.54v-38c14.8,5.13,25.86,13.6,35.19,24.67s14.89,24.18,20.38,37.91a15.2,15.2,0,0,0,.51-2.95,22.13,22.13,0,0,0-.57-4c-3.1-14.21-10-26.64-17.51-38.95a175.06,175.06,0,0,1-12.6-25.86c-3-7.36-.11-14.17,4.9-21.72C1128.66,71.35,1134.75,83,1149.19,90.68ZM1086,138.44c35.56,12.52,55.16,40.82,71.34,72.95,30.39-50.83,34.17-53.57,73.59-73.91-19.2,2.33-33.92,11-48.61,23.84,4.14-18.53,11.54-33.08,19.54-47.44-10.18,8.4-16.57,19.23-21.54,30.89-3.79,8.87-6.81,18-10.42,27-2.84,7-5.63,14.18-13,20.1-3.16-5.12-6.58-9.55-8.81-14.51-3.68-8.18-6.62-16.69-9.8-25.08-4.88-12.84-11.15-24.89-20.26-35.29-2.19-2.5-4.74-4.69-7.12-7,9.69,15.4,17.52,31.06,20.75,49C1118,148.3,1103.72,139.75,1086,138.44Zm71.72,113c8.84-20.76,18.9-38.28,35.46-51.24-13.82,3.92-24.88,12.13-35.7,21.09-10.49-9.83-22-17-35.13-21.25C1138.72,213.17,1149,230.38,1157.74,251.42Zm0-133.09c-6-7.85-11.63-15.26-17.36-22.58-5.48-7-11.09-13.94-16.64-20.9l-2,1.43L1157.87,136c6.79-11.39,13.64-23.08,20.69-34.64,3.46-5.67,7.45-11,10.87-16.71,1.44-2.4,2-5.3,3-8l-1.78-.65C1179.85,89.9,1169.06,103.75,1157.7,118.33ZM1157.17,72c9.57-19.06,9.34-38-.41-48.22C1147.73,39.75,1151.64,55.16,1157.17,72Z"/><path d="M404.39,892c3.8-6.85,10.2-9.59,18.17-12.79-23.53-12.54-40.32-29.7-50.67-52.59.72-1,1-1.84,1.5-2,15.09-4,30.17-8.09,45.31-11.88a186.61,186.61,0,0,1,20.51-4.13c9.33-1.26,15.07.23,29.3,6.48-1.11-3.89-1.94-6.87-2.82-9.84-5.63-19-4.24-37.55,3.61-55.62,14.36-33.08,58.43-42.83,86.13-26.92.52.3.8,1,1.18,1.56-26.86,10.61-38.42,23.74-42.09,48.08,4.81.69,9.84.76,14.39,2.27s8.44,4.42,14.11,7.53c-12.82,6.55-19.95,15-21.39,27.54,8.62.43,16.53.25,24.25,1.37,8,1.15,13.54,6.66,18.55,14-2.4,1.7-4.72,3.33-7,5C547,837.54,540,847.42,538,860.29c-6.46,40.83,13.78,60.46,45.56,69.22a119.38,119.38,0,0,0,21.62,3.63c7.27.61,14.64.13,22.22,1.81-3,.66-6.1,2-9.11,1.87-13.94-.48-28.18.27-41.73-2.4-36.64-7.21-56.61-38.88-48.63-75.5,2.1-9.63,5.59-19,8.71-29.32-11.25,2.77-18.58,9.75-22.73,19.28-3.89,9-5.94,18.7-8.67,27.7-17.54-28.39-26.31-79-19.68-114.86-4.6,6.57-6.6,14-7.17,26.47-1.11,24.39,4.29,47.62,12.61,70.32a48.21,48.21,0,0,1,2.76,9.67c-21.58-20.62-45.3-35.81-76.71-34,39.13,6.31,65.38,29.07,83.69,64.5-9.68-2.76-17.94-5.58-26.42-7.4-8.69-1.86-17.46-1.17-26.31,1.1.56,1.32.63,1.8.8,1.84,17.09,3.72,30.65,14,44.49,23.82,9.24,6.55,18.52,13.05,28,19.22,23.84,15.49,50,23.15,78.51,22.33,5-.15,9.95,0,17.21,0-12.54,6.34-24.06,8.4-35.68,9.73-27.52,3.17-52.92-4-76.73-17.2-13.08-7.27-25.51-15.71-38.38-23.38-19.44-11.58-39-22.94-58.52-34.41C406.66,893.7,405.69,892.91,404.39,892Z"/><path d="M1490.94,1751.61c15.56,9.79,16.86,24.64,13.59,41.78,14.33,0,22-8.43,28.4-19.4,8.31,7.5,10.14,16.66,9.42,28,24.74-6,42.94-17.4,48.66-44.93,9,14.87,10.93,29.11,8.37,43.9-5.39,31.11-27.68,50.52-60.57,52-9.79.42-19.72-2-29.57-3.35-2.53-.34-5-1.32-9.27-2.49,11.11,18.23,7.3,35.57,2.16,53-4.2,14.26-8.24,28.56-12.65,43.87-23.08-10.33-40.37-26.89-52.61-50.29-4.13,6.59-5.82,14.29-13.73,17.51-2.32-4.49-4.34-9-6.87-13.21-10.28-17.13-20.85-34.08-31.07-51.24-9.36-15.72-19.34-31.18-27.39-47.56-14.77-30.1-15.93-61.47-5.29-93.26a9.7,9.7,0,0,1,3.65-5.16c0,2.42.15,4.85,0,7.26-2.56,36.18,8.2,68.31,29.35,97.37,7.44,10.24,14.5,20.76,21.88,31a76.37,76.37,0,0,1,12.73,26.91c.34,1.43,1,2.78,2.32,6.33,5.54-20,1.73-36.67-5.17-53.3,35,16.59,57.39,42.76,63.32,82.47,3.13-11.3,1.08-26.14-7.78-41.68-7-12.31-16-23.49-24.59-35.78,2.58.94,5.35,1.92,8.1,3,22.65,8.51,45.86,14,70.25,13,9.66-.41,19.11-2,27.87-6.83-41.62,9.37-78.94-4.84-116.31-20.25,20.66-3,39.47-8.29,49.07-32.27-5.07,1.89-8.31,3-11.51,4.31-13.82,5.48-28.07,9-43,6.85-26.25-3.75-42.2-19.93-50.16-44.33-5.25-16.07-5.1-32.82-3.61-49.51.23-2.54,1.23-5,1.93-7.73,1.11,12.29,1.27,24.32,3.53,36a114.78,114.78,0,0,0,9.66,28.13c7.33,15,19.87,23.72,36.61,26.24,24.55,3.71,45-2,58.18-24.81C1489.16,1752.49,1489.92,1752.27,1490.94,1751.61Z"/><path d="M446,1422.57c19.64,5.65,36.35,1.81,54.6-7-4.94,13-12.11,22.11-19.69,31.07A85.38,85.38,0,0,1,452,1469.33c-10.61,5-22,8.24-34,12.59a67.88,67.88,0,0,0,41.08-9.33c12.13-7.07,23.2-15.95,35-24.24-12.14,32.82-21.68,66.09-10.75,101.43-6.09-39.82,7.06-75.74,22.11-111.59,3,20.5,8.13,39.15,31.11,46.64-1.17-3.29-2.29-6.6-3.53-9.86-5.43-14.2-8.88-28.82-6.28-44,4.18-24.34,19.29-39.78,42.07-47.63,18.82-6.48,38.29-6.16,57.77-2.55-8.92.77-18,.89-26.75,2.46-9.75,1.75-19.67,3.81-28.81,7.5-29.78,12-42.92,45-30.31,74.55a45.89,45.89,0,0,0,16.12,20c2.4,1.69,4.83,3.33,7.23,5-8.66,13.32-11.44,14.34-42.34,15.53,1.38,12.72,8.13,21.19,19.3,26.57-6.77,8.17-11.4,10-25.69,10.62.94,20.11,13.55,40.09,41.37,48.56-2,1.42-3.27,2.67-4.79,3.37-28.9,13.22-77.87,4-87.72-44a82.42,82.42,0,0,1,2-42.4c.67-2.09,1.21-4.22,2.22-7.8-10.73,5.12-20.53,8.19-30.94,6.35-8.17-1.44-16.24-3.54-24.26-5.71-13.46-3.63-26.84-7.55-40.34-11.37,2.51-15.09,17.76-32.13,48.95-53.75-6.92-2.78-13.58-5.48-17.25-12.28.92-.88,1.5-1.79,2.33-2.18,26.07-12.18,49.58-28.61,73.67-44.09,19.11-12.28,38.82-23.15,61.17-28.78,24.55-6.17,48.21-3.15,71.64,5,.85.3,1.5,1.2,3.3,2.71-11.52,0-21.91-.49-32.24.11-23.14,1.34-44.22,9.26-63.46,21.95-13.62,9-26.93,18.45-40.29,27.82-8.79,6.18-18,11.48-28.62,13.7C450.57,1420.47,449.13,1421.3,446,1422.57Z"/><path d="M1758.8,1591.85c28.42-12.85,36.41-22,42.63-48.33-4.78-.72-9.74-.83-14.24-2.32s-8.61-4.39-14.81-7.69c13-6.25,19.78-15,21.87-28.53-8.5,0-16.46.85-24.15-.23-8.25-1.15-14.26-6.68-18.54-13.73.47-.79.66-1.56,1.13-1.82,26.75-14.66,30.23-43,22.77-67.82-4.39-14.65-15.34-23.71-28.89-30-14.8-6.9-30.59-8.85-46.62-9.72-3.48-.18-7,0-10.44-.82a116.11,116.11,0,0,1,52.42.93c35.45,8.93,54,40.52,45.41,76.93-2.12,8.94-5.5,17.59-8.31,26.42,16.76-2.51,27-18.3,30-47.23,5.42,5.58,6.43,12.43,8.86,18.46s4.48,12.53,6.38,18.91c2,6.69,4,13.42,5.34,20.26a166.76,166.76,0,0,1,2.82,20.76,133,133,0,0,1,0,20c-.54,6.84-2,13.6-3.3,21.77,7.42-13.64,8.26-27.19,7.94-40.86-.47-20.86-5.35-40.85-12.75-60.28a50,50,0,0,1-3-9.68c21.23,20.12,44.33,35.58,75.2,34.13-38.29-6.91-63.88-29.57-80.51-63.94,17,6.67,33.92,11.23,52.1,5.5-.4-.65-.53-1.14-.75-1.18-18.86-4.05-33.41-15.94-48.7-26.54-10.12-7-20.26-14.05-30.79-20.41-25.69-15.52-53.75-20.78-83.45-18.29-1.64.14-3.29.22-6.89.46,10-6.15,19.4-7.63,28.69-9.45,30.68-6,58.85,1.9,85.46,16.54,13.4,7.37,26,16.13,39.17,24,18.56,11.1,37.28,21.94,55.91,32.91,1.37.81,2.65,1.77,4.22,2.82-4,7-10.24,9.83-18.37,12.67,23.9,12.43,40.92,30.05,51.25,53.29-14.55,4.09-28.28,8-42,11.8-5.45,1.51-10.94,2.85-16.41,4.31-13,3.48-25.52,1.49-38.85-5.52,5.74,15.52,7.5,29.79,5.71,44.52C1846.88,1590,1798.28,1614.93,1758.8,1591.85Z"/><path d="M815.53,1846.55c-18.57,6.85-34.85,8.41-51.59,4.66-41.15-9.24-62-56.23-39.57-93.16,3.38,11.93,8,22.07,17,29.41s19.18,11.69,31.13,14.15c.64-10.27,1.23-20.27,10.5-27.49,5.62,11.09,13.7,18.21,26.74,19.75.32-8.25-.14-16.14,1.11-23.75,1.35-8.19,6.65-14.3,14.21-18.78a24.39,24.39,0,0,1,2.54,3.05c11,18.82,28.28,25.41,49,24.46,21.43-1,37.29-10.74,46.81-30.42,7.27-15,9.54-31.07,10.54-47.44a100.52,100.52,0,0,1,1.09-11.86c3.35,19.37,3.53,38.69-2.71,57.51-10.59,31.9-39.47,48.31-72.4,41.31-7.45-1.58-14.67-4.29-22-6.53-2.41-.73-4.78-1.6-7.55-2.54,3.22,16.74,12.74,22.89,48.31,31.32a316.28,316.28,0,0,1-55.65,18.86,157.3,157.3,0,0,1-57.27,3.06c35.27,11.2,68.5,1.41,102.11-10.13-20,21.23-35.15,44.37-33.58,75,6.64-38.52,29.55-64.08,64.06-81-6.65,17-11.42,34-5.57,52.63.9-1.37,1.72-2.1,1.9-3,3-14.8,11.59-26.7,20-38.75,9-12.83,18-25.61,26.2-38.95,15.44-25.3,20.57-53.12,18.34-82.47A9.78,9.78,0,0,1,960,1700a37.1,37.1,0,0,1,2.61,4.89c11.54,32,9.81,63.59-4.7,94.16a371.32,371.32,0,0,1-21.53,38.26c-14.74,23.39-30.64,46-42.39,71.2a13.5,13.5,0,0,1-2.17,2.49c-6.66-3.64-9.62-9.79-12.54-18.43-12.29,24-29.8,40.66-53.38,51.55-5.81-21.47-11.79-42.06-16.87-62.86C806.25,1870,809,1858.91,815.53,1846.55Z"/><path d="M960.4,615.51c-1-14.68-1.14-29.69-3.22-44.43-3.09-21.88-13.47-40.94-25.9-58.92-5.11-7.39-10.32-14.73-15.54-22.06-9.27-13-19.06-25.74-22.09-42.27-6.29,17.88-2.4,34.58,5.52,51.05-11.88-2.13-31.59-16.68-42.85-31.14s-18.61-30.42-20.79-50c-3.71,10.3-1.39,26.23,7.53,41.59,7.12,12.25,16.23,23.34,24.47,35-34.88-12.85-70.71-23.25-108.26-8.62,41.89-10,79.89,3.91,118.11,19.85C856.7,508.45,838,514,828.32,537.61c4.92-1.77,7.87-2.78,10.78-3.9,12.21-4.71,24.75-8.23,37.93-7.63,26.22,1.2,46.73,17.35,55.46,43.11,5.31,15.68,6.4,39.5,2.4,58-.82-9.52-1-18.19-2.44-26.67-1.54-9.12-3.4-18.36-6.57-27-10.58-29-33.64-41.44-68.4-34.84-11.6,2.2-20.59,9.09-27.39,18.72-1.53,2.15-2.92,4.4-4.63,7-17.21-9.78-16.81-25.66-14.66-41.89-12.72.49-18.35,4.31-28.2,18.78-8.89-6.87-9.63-16.78-10-27.24-24.31,5.36-41.85,17.47-48.18,43.81-7.47-10.87-9.18-21.55-9.12-32.47.2-33.94,23-58.57,56.83-62.19a85.88,85.88,0,0,1,41.16,5.23c.37-.74,1-1.49.86-1.79-7.92-14.47-6.91-29.38-2.47-44.56,4-13.72,7.81-27.51,11.6-41.3.77-2.8,1.07-5.73,1.59-8.65,19.13,6.27,32,18,54,49.05l11.54-17.64c2.08,2.39,3.27,3.41,4,4.69q17.83,30,35.56,60.15c9.27,15.77,19.43,31.12,27.48,47.5,15.07,30.7,16.77,62.64,5.16,95.05-.45,1.24-.88,2.5-1.44,3.69A2.78,2.78,0,0,1,960.4,615.51Z"/><path d="M1779.05,828.85c3.49,12.64,7.55,23.32,9.28,34.36,5.42,34.53-12.82,61.93-46.75,70.68a117.48,117.48,0,0,1-55.23.92c13.2-1.2,25.5-2,37.7-3.52,11-1.38,21.2-5.68,30.67-11.43,11.65-7.08,19.48-17.19,22.15-30.67,3.77-19,3.05-37.34-11.12-52.49-4-4.29-9.1-7.59-14.23-11.78,10-16.27,25.34-16.89,42.5-13.82-1.43-13.68-8.32-22.19-19.37-27.74,6.56-8.25,8.94-9.2,26.31-10.79-3-23.9-15.85-38.74-42.16-48.14,6.51-6.32,14.72-7.54,22.62-8.62,36.21-5,66.77,19.13,71,55.45a88.48,88.48,0,0,1-5.05,42.09c.9.4,1.62,1,1.92.82,13.09-7.23,26.77-7.15,40.7-3.27,8.33,2.33,16.54,5.11,24.89,7.36,9.27,2.49,18.64,4.62,29.12,7.18-10.07,23.75-27.1,40.84-50.77,53.69,7.69,3.11,14,6,17.55,12.19-.48.86-.64,1.68-1.09,1.89-25.92,12.44-49.52,28.71-73.72,44a346.65,346.65,0,0,1-37.45,20.93c-30,14.13-60.91,15.55-92.37,5a32.8,32.8,0,0,1-3.7-1.48c-.52-.25-.89-.81-2.39-2.26,3.42,0,5.85-.14,8.25,0,35.43,2.41,67-7.88,95.66-28.44,11.09-8,22-16.25,33.63-23.4,9.17-5.65,19.27-9.79,28.49-14.37-9.82-5-19-4.16-51,5.53,8.45-17.84,19.52-31.88,34-43.33,14.65-11.56,31.52-18,49.79-21.19-31.73-2.27-55.53,13.5-77.39,34.24,12.42-34.44,21.88-68.72,9.94-105.08,7,40.58-5.69,77.39-21.47,114.06C1807.19,856.7,1801.63,838,1779.05,828.85Z"/><path d="M1481.33,416.74c-6.18,39.16-28.61,65.61-64.31,83.87,2.76-9.82,5.49-18.07,7.34-26.52s1-17-.94-25.52c-1.29.45-2.26.56-2.32.85-3,14.41-11,26.26-19.3,38-8.11,11.4-16.18,22.85-23.8,34.57a132.77,132.77,0,0,0-22,77.63c.13,4.65.12,9.31.14,14a12.15,12.15,0,0,1-.66,2.13c-6-11.48-7.92-23.1-9.24-34.79-2.51-22.45,1.93-43.79,11.27-64.17a191.77,191.77,0,0,1,10.56-20.39c18.61-30.35,37.47-60.54,56.5-91.21,5.78,2.82,8.61,9.14,11.79,17.61,12.65-23.94,30-40.73,53.19-51,5.51,19.61,11.06,38.35,16,57.25,3.44,13.19,2.37,26.22-4.92,38.66,9.76-1.76,18.46-4.33,27.23-4.62a100.42,100.42,0,0,1,27.66,2.7c42.67,10.76,53,58,38.86,87.12-.68,1.41-1.83,2.6-3.43,4.81-5.92-26.38-23.85-38.19-48.08-43.81-.44,10.34-1,20.3-10.18,27.76-5.82-11.35-14.28-18.55-28.47-20.08,2.37,11.44,3.55,22.5-2.89,32.26-2.64,4-6.47,7.19-9.88,10.87-1.68-1.49-2.61-2-3.06-2.78-12.1-21-31.17-26.66-53.77-24.59-21.4,2-35.45,13.71-43.88,33a106.09,106.09,0,0,0-8.59,38.78c-.24,6.32,0,12.66,0,19l-2,.15c-.65-7.41-2.17-14.87-1.73-22.22.71-11.9,1.15-24.18,4.47-35.5,9.87-33.7,40.24-50.39,75.21-42.38,7.1,1.63,13.93,4.44,20.88,6.74a16.31,16.31,0,0,0,6.59,1.29c-8.15-21.81-26.12-27.89-47-29.39,5-5.49,30.11-14.79,55-20.37a141.88,141.88,0,0,1,58.82-1.15c-8.21-8-37.22-8.38-53-5.18-17.49,3.55-34.65,8.71-50.15,12.7,7.12-10.17,16.15-21.51,23.42-33.89A64.52,64.52,0,0,0,1481.33,416.74Z"/><path d="M2106.09,1028.24c10.46,1,21.42,1.32,29.6,9.07a47.63,47.63,0,0,1,8.06,10.06c2.09,3.53,3.21,7.63,5.48,13.26-25.68-9-47-.93-68.09,8.91-27.77,13-55.66,25.63-85.67,32.72-20.16,4.76-40.47,8.08-61.47,5.25,9-1.26,17.94-2.47,26.9-3.8a250.49,250.49,0,0,0,88.06-30.86c9-5.11,17.86-10.41,27.17-14.82,18.53-8.77,37.6-15.58,59.48-12.42-2.85-1.48-5.58-3.35-8.59-4.36-10.25-3.45-20.5-1.69-30.47,1.19-7.33,2.12-14.34,5.29-21.5,8a32.71,32.71,0,0,1-8.69,2.26c31.53-26.87,44.72-62.26,48.46-102.09-1.31,4-2.74,8-3.9,12.1s-2.22,8.36-3.14,12.59a121.57,121.57,0,0,1-39.46,67c14.92-24.8,24.85-50.58,16.56-80,1.92,31.67-7.62,59.18-29.13,83.79-3.36-25.84-3.92-27.44-12.77-37.1-.53.79-1.48,1.52-1.44,2.2,2,36.76-22.27,66.26-57.64,75.07-21.35,5.31-42.83,5.84-64.08-.86a21.82,21.82,0,0,1-9.43-5.88c10-1.36,20.09-2.48,30.06-4.14a135.11,135.11,0,0,0,47.68-17c22.66-13.55,35.9-33.17,38.64-59.63.37-3.62,1-7.22,1.6-11.73,10.61-1.91,20.19.1,29.73,7.29.43-8.72.71-16.45,1.21-24.16.36-5.65.71-11.33,1.59-16.91,2.41-15.38.72-29.84-9.08-42.68,15.59-3.84,29.08,3.79,53.65,30.2,6.07-9.71,14.59-14.8,25.69-14.17-1.8,20.72-3.21,40.86-5.42,60.9a60,60,0,0,1-16.11,34.79c-1.12,1.2-2.1,2.53-3.1,3.84C2106.35,1026.28,2106.39,1026.68,2106.09,1028.24Z"/><path d="M1269.14,180.38c4.44,25-5,46.57-15.85,67.78-7.75,15.09-16.5,29.7-23.6,45.08-11.24,24.38-17.35,50.26-19.82,77a54.28,54.28,0,0,1-2.45,11.41c-2.3-23.92,2-47,8.11-69.87,6.52-24.57,16.88-47.65,27.39-70.68,2.49-5.45,5.22-10.79,7.5-16.33,7.47-18.14,12.41-36.58,4.79-57.12,11.07,1.48,19.78,5.89,24.47,14.46,4.46,8.17,6.36,17.73,9.47,26.91a3.66,3.66,0,0,0,1.75-.75c12.68-12.65,28.22-18.19,45.84-19.35,17.19-1.13,34.33-2.93,52.12-4.48,1.2,11-4.23,19.36-14.71,26.22,18.89,12.74,32,28.62,32.64,52-1.07.36-1.89.89-2.16.69-12.29-9.1-26.06-10.66-40.83-8.91-13.51,1.59-27.12,2.26-41.27,3.37,4.59,8.78,8.92,18.29,5.86,29.14-8.14,1.41-16.07,2.38-23.8,4.19-16.47,3.87-29.83,12.72-40.22,26.14-16,20.72-22.9,44.8-26,70.27-.73,5.89-1.29,11.8-2.1,19.23-6.23-7.67-8-15.49-9.14-23.18-2.93-19.65-2.27-39.2,4.1-58.25,10.4-31.11,38-53,72.84-51.25a6.52,6.52,0,0,0,1.86-.5c-5.61-9-12.28-11.55-34.82-13.2,5-8,21.2-18.05,37.68-23.83,14.38-5.05,29.2-6.05,45.91-4.87-20.21-9.16-43.87-4.21-80.83,15.81,5.91-9.92,25.43-25.7,41.53-31.53,16.33-5.9,33.2-10.3,49.76-15.61-39.57,4.31-75.22,16.88-101.33,49.38l-1.69-1.39c1.27-3.12,2.75-6.18,3.78-9.38,3.34-10.42,7.23-20.74,9.54-31.4C1277.48,198.12,1276.53,188.49,1269.14,180.38Z"/><path d="M1060.27,168.75c-6.61,15.38-4.59,30.55,1,45.1,6.16,16.15,13.62,31.81,20.59,47.64,12,27.24,21.66,55.23,25.29,84.89,1.49,12.13,1.36,24.46.66,36.73-2.44-15.16-4.41-30.41-7.43-45.45-4.89-24.34-14.15-47.12-26.28-68.75-4.07-7.26-8.45-14.36-12.28-21.75-11-21.13-19.65-42.83-13.93-69.21-6.09,5.79-7.45,11.41-7.95,17.46-1.09,13.31,2.24,25.76,7.28,37.88a140.11,140.11,0,0,1,6.34,17c-25.73-29.83-58.35-45.13-97-48.09,22.56,7.18,46.53,11,65.71,26.44,6.72,5.41,13.21,11.1,19.8,16.66l-1.21,1.92-7.82-4.63c-17.28-10.27-35.82-16-56.08-15a50.42,50.42,0,0,0-14.32,3.11c31.56-1.75,58.79,7.76,83.1,28.94-28,4.8-28,4.8-37.28,13.79,2.52.26,4.23.57,6,.6,31,.59,53.56,15,66.45,43,11.26,24.45,12.29,50.18,5.44,76.17a66.09,66.09,0,0,1-3.61,9.29c-.47,1.1-1.39,2-3.18,4.49-1.15-9.67-2-17.72-3.1-25.73-2.61-18.28-7.76-35.75-17-51.88-13.7-23.91-33.89-37.92-61.6-40.57-3.3-.32-6.57-1-9.85-1.53-.26,0-.48-.39-1.21-1-1.59-10.15.5-19.83,7.11-28.13-16.6-1.45-32.69-3-48.8-4.21-13-1-25,2.46-36.42,11.17.73-24.67,13.05-41,32.61-54.16-9.61-6.84-15.6-15-14.72-27.6,2.62.42,4.72.86,6.83,1.09,14.22,1.5,28.4,3.47,42.66,4.31,19.34,1.15,36.66,6.47,51.59,22.91.63-5,1.06-8.27,1.47-11.55,2-16.74,11.44-27.19,27.4-32a6.73,6.73,0,0,1,2-.19C1058.63,167.81,1058.91,168.06,1060.27,168.75Z"/><path d="M2131.24,1389.27c-11.22.49-19.51-4.66-25.29-13.55-8.16,7.6-15.6,15.67-24.19,22.21s-19,8.71-31.43,9.33c12.4-15.67,12.57-32.21,10.16-49.53-1.6-11.47-1.69-23.15-2.52-35.74-8.58,5.78-18.23,8.94-29.6,6.7-.62-4.66-1.24-9.2-1.83-13.75-2.87-21.94-12.91-39.62-31-52.63-18.31-13.18-39.06-19.8-61.08-23-7.89-1.15-15.84-1.85-25.21-2.93,2.45-1.85,3.89-3.59,5.72-4.22,33.75-11.57,66.53-9.68,96.58,10.19,19.84,13.12,29.34,33.06,30.09,57,.06,2,0,4,.06,6,0,.3.28.59.8,1.59,11.24-9.56,12.09-22.64,12.62-37.92,22.07,25.37,31.6,52.59,29.81,83.93,7.91-28.69-1.3-53.87-16.87-78.64,10.67,6.85,24.38,23.35,30.49,39,5.83,15,10,30.61,15.15,45.83-3.24-38.45-18.37-71-47.69-97.56,2.38,1,4.76,2,7.13,3s4.9,2.08,7.34,3.15c12.66,5.55,25.69,9.22,39.71,8.1,6.05-.48,11.67-1.86,17.43-7.89-30.57,6.34-55-5.71-78.76-19.3-16.81-9.61-33.82-18.57-52.11-25.09a262.29,262.29,0,0,0-69.22-14.23,8.3,8.3,0,0,1-5-1.61c3.94-.27,7.88-.7,11.83-.78s8,.06,12,.32c4.32.28,8.64.67,12.92,1.24,36.77,4.9,70.67,18.55,104,34a321.79,321.79,0,0,0,30.38,12.67c14.11,4.85,28.57,6.64,43,.39.72,9-4.22,19.84-13.48,24.6-8.28,4.26-17.75,6.23-26.83,9.25-.07-.33-.17.51.2.87,14.06,13.51,19.37,30.47,20.43,49.48C2127.85,1355.86,2129.71,1372,2131.24,1389.27Z"/><path d="M1268.63,2137.13c6.4-7.36,8.23-14.63,7.25-21.81a226,226,0,0,0-6.89-31c-1.79-6.32-5-12.22-8-19.21,1.56.62,2.53.7,3,1.23,22.54,26.66,51.48,41.56,85.73,46.75q3,.45,5.9,1a11.45,11.45,0,0,0,6.26,0c-2.36-.88-4.67-1.94-7.1-2.6-8.35-2.27-16.77-4.26-25.1-6.6-21.66-6.09-39.56-18.18-54.67-35.14,25.12,14.66,51.22,23.35,80.53,14.7-32.24,3.1-60.12-6.68-86.26-28.66,14.68-1.21,27.6-2.21,38.1-13.21-2.26-.51-3.63-1.16-5-1.07-30.9,2-62.7-19.15-72.45-55.69-5.78-21.66-6.39-43.39,0-65a23.41,23.41,0,0,1,6.14-10.21c1.38,10.08,2.48,20.21,4.19,30.24a136.73,136.73,0,0,0,17.16,47.63c14.45,24.17,35.83,36.84,63.72,39,2.27.17,4.53.42,6.64.62,2.67,10.49,2,14.35-5.16,30,15.33,1.15,30.79,2.52,46.29,3.43,15.71.93,18.68,0,37.8-9.56-.44,23.94-13.19,39.92-32.65,53.13,10.92,6.77,15.67,15.54,14.91,28.35-19.55-7.14-39.41-4.9-58.78-7.33-15.09-1.9-28.16-7.62-38.93-18.43a31.48,31.48,0,0,0-3.8-2.53c-.47,4.61-.77,8.4-1.24,12.16-2.06,16.49-14,28.48-29.77,29.71a8.07,8.07,0,0,1-.08-2.8c4.57-13.22,3.16-26.39-1-39.25A239.09,239.09,0,0,0,1245,2079c-13.81-30-27.27-60-33.61-92.69-2-10.11-3.49-20.35-4.47-30.6a83.12,83.12,0,0,1,1.17-22.11c1.3,9.2,2.54,18.41,3.91,27.6a249.77,249.77,0,0,0,31,88c4.63,8.09,9.37,16.14,13.48,24.49C1268.62,2098.57,1270.61,2109.1,1268.63,2137.13Z"/><path d="M180.28,1046.55c21.77-4.14,41.12,2.8,59.89,11.88,10.17,4.92,19.86,10.84,29.77,16.32a254.13,254.13,0,0,0,98.44,30.82c3.31.33,6.61.83,9.9,1.36.88.14,1.7.7,3.88,1.64-18.72,1.71-35.67-.77-52.54-4.14-29.94-6-57.91-17.56-85.44-30.34-6-2.81-12-5.77-18.12-8.41-21.78-9.43-31.82-10.55-57.92-6.53,1.17-10.33,5.63-19,14.34-23.52,8.24-4.32,17.77-6.19,26.86-9.18,0,.32.12-.11-.06-.28-16.37-16.11-20.59-36.43-21.26-58.41-.4-13.54-2.52-27-3.92-41,11-1.52,19.21,4.44,26.63,14.37,13-18.83,28.94-31.91,54.07-32.17-13.07,16.59-11.42,34.28-9.23,52.43,1.27,10.45.23,21.18.23,33.32,10.53-6.66,20.25-10.17,31.39-7.55,1,6.57,1.7,12.79,2.79,18.94,3.68,20.81,14.68,36.85,32,48.72,19.75,13.53,42,19.68,65.47,22.5,5.87.71,11.76,1.28,19.4,2.1-6.14,5.12-11.91,6.73-17.61,7.92-22.28,4.65-44.31,3.85-66-3.68-29.91-10.4-50.47-38.74-49.14-69.28.07-1.57-.15-3.14-.24-5-9.42,6.58-12,13.28-13.86,34.61-7.87-4.57-18.44-21.66-23.95-38.48-4.84-14.78-6-29.91-3.79-46.76-9.49,19.09-5.08,43.47,14.69,83.15-2.81-2.13-4.23-2.95-5.33-4.08-16.47-16.79-27.72-36.47-33.1-59.47-2-8.37-4.36-16.63-6.94-24.84,3.18,33,10.06,64.62,48.36,100.81-4.71-2-9.32-4.25-14.16-5.81-9.47-3.06-18.93-6.4-28.65-8.33C197.62,1038.23,188.06,1039.24,180.28,1046.55Z"/><path d="M1079.42,1908.51c7.42,10.83,9.11,21,10.17,31.23a120.47,120.47,0,0,1-5.18,50.32c-11.08,33.89-41.35,53-70.69,51.42a37.57,37.57,0,0,0-4,.23c5,8.81,7.39,9.79,35.79,14.59-25.34,21.66-53.47,31.38-86,28,30.1,9,56.77.15,82.33-15.67-12.64,14.5-27.36,26.06-45.41,32.57-11.24,4.05-23,6.75-34.47,10.08-3,.87-6,1.87-11.19,3.53,42.24-3.5,76.28-18.52,103.41-49q-3.39,8.09-6.8,16.16c-5.14,12.09-8.51,24.53-7.51,37.84.45,6,1.64,11.79,8.06,18-4.5-20.41-.66-37.81,6.82-54.49a230.58,230.58,0,0,1,13.16-25.78,263.24,263.24,0,0,0,37.54-108.63c.64-5.61,1-11.25,1.52-17.42,2.9,12.8,2,30.37-1.68,50.07-6,32-18.27,61.85-31.85,91.23-3.5,7.55-7.19,15-10.14,22.81-6.35,16.7-10.5,33.7-3.13,51.47-19-1.12-27.28-11.62-32.69-40.7-.62.06-1.49-.13-1.82.21-14.7,15.06-33.23,19.84-53.52,20.82-14.9.72-29.74,2.51-44.79,3.84-2.09-9.29.84-15.8,12.34-25.41-7.36-7.89-15.35-15.3-21.88-23.83s-8.8-19.09-9.4-30.61c5.47,2.82,10,5.63,14.85,7.54,9.58,3.75,19.66,2.91,29.65,2.18,13.24-1,26.48-2,40.65-3.16-5.63-8.51-9.15-18.21-6.46-29.53,6.54-1,13.09-1.7,19.55-2.92a71.67,71.67,0,0,0,45.5-28.39c14-18.65,20.84-40,24.18-62.7C1077.49,1926.62,1078.22,1918.75,1079.42,1908.51Z"/><path d="M209.56,1287.34c-21.3-.16-37-8.2-42.31-32.18,24.08,9.1,44.87,1.19,65.28-8.2,27.24-12.54,54.4-25.2,83.63-32.58,16.83-4.25,33.81-7.62,51.27-7.55,5.49,0,11,.48,16.82.75-17.2,2.84-34.08,4.83-50.57,8.52-25.84,5.79-49.81,16.49-72.71,29.84a312.65,312.65,0,0,1-34.84,17.29c-14.65,6.24-30,8.5-46.15,4.84,4.13,5.5,6,6.54,13.55,7.44,13.65,1.63,26.47-1.67,39-6.75,5.75-2.33,11.4-4.92,17.81-6.74-31,26.43-45.81,60.5-48.58,100.35,1.1-3.8,2.25-7.59,3.31-11.4,1.15-4.17,2.39-8.33,3.31-12.55,5.2-23.8,17-43.94,33.91-61.23a16.13,16.13,0,0,1,4.86-3.53c-15.81,25.68-25,52.45-15.7,82.71-3.54-32.6,6.2-60.8,28.39-86.91,1.35,14.39,2,27.45,13.41,37.77.39-3,.86-5,.9-7,.52-30.38,15-52.15,42-65,24.68-11.71,50.75-12.74,77.08-5.76a26.57,26.57,0,0,1,11.59,6.66c-11.69,1.73-23.46,3.05-35,5.28A126.53,126.53,0,0,0,322,1260.9c-20.44,13.86-30.86,33.43-33.53,57.57-.36,3.24-.62,6.5-1,10-11.16,2.38-20.71-.25-30.69-7.32,0,3.52.12,5.94,0,8.35-.53,9.63-.74,19.3-1.8,28.87-1.88,16.85-2.35,33.29,10.12,48.51-24.94-.59-41.14-12.93-54-32.16-7.65,9-15.54,16.26-26.8,14.14,1.38-15.42,3.18-30.23,3.92-45.1,1-20.25,5.46-38.89,20.65-53.56C209.23,1289.88,209.16,1289.06,209.56,1287.34Z"/><path d="M949.68,1918.75c29.63,3.4,45.94-4.51,67.93-31.39-12.57,39-34.48,70.11-73.4,87.38,23.5-3.7,42.61-14.73,57.52-33.22,14.76-18.33,22.55-39.69,27.76-62.32.92,35.61-6.9,69.44-19.79,102.68,1.14-1.48,2.36-2.89,3.38-4.45a56.7,56.7,0,0,0,2.93-5.22c13.35-26.24,19.52-54.4,22.37-83.45a129.19,129.19,0,0,1,2.55-17.79c10.66,20.82,12.17,43,10.1,65.73,4.16-5.76,6-12.75,7.74-32.58,1-11.17,1.27-22.41,2.59-33.55,11.23,35.13,7.28,68.76-10.27,102.59L1038,1962.58c-6.66,25.15-22,43.79-44.55,57.47-4.63-10.76-8.94-20.76-13.44-31.23-8.72,1.83-17.68,4.21-26.79,5.51-27.75,3.94-53-1.8-74.57-20.55-1.65-1.44-3-3.24-5.46-6,36.9,3.69,66.81-8.89,93.7-31-19.47-1.53-35.78-7.85-47.48-26.14,23.45-4.74,43.92-13.47,58.93-31.67,14.89-18,22.14-39.24,25.81-62.45.42,1.56,1.36,3.18,1.19,4.67-1.53,13.55-2,27.4-5.2,40.54-6.35,25.56-20.64,45.27-46.57,54.6C952.7,1916.62,952,1917.31,949.68,1918.75Z"/><path d="M498,1310.89c-48.88,8.62-83,32.4-92.51,83.74-14.61-4.85-22.44-18.62-26.07-45.43-18.7,13.22-33.15,54.57-31.91,93.25C332,1428,324,1411.14,321,1391.72c-2.86-19.11.79-37.69,6.22-55.83l-31.54-13.68c6.21-11.38,14.68-20.44,24.46-28.42,9.63-7.85,20.71-12.92,33.14-16l-11-13.16c33.7-17.82,67.35-21.45,102.68-10.31-22.47,1.24-45,1.65-66.53,9.54,22.79-1.58,44.89.36,65.93,9.34l.09,2.22-17.88,1.77c-28.68,2.89-56.54,8.87-82.46,22a48.8,48.8,0,0,0-10.59,7.19c33-13.41,67.08-21.15,103-20.09-6.1,1.64-12.24,3.16-18.3,4.94-17.13,5-32.83,12.86-46.48,24.5-17.08,14.57-27.32,33.05-30.94,55.51,17.38-38.64,48.38-60.77,87.78-73.29-24.5,15.61-34.93,37.77-32,67.91,1.46-2,2.37-2.88,2.74-3.91,9.69-26.67,30.11-40.9,56.49-47.06,12.54-2.93,25.69-3.31,38.57-4.76C495.51,1310.1,496.76,1310.66,498,1310.89Z"/><path d="M1366.45,1919.07c-3.1-1.86-4-2.65-5.11-3-25.14-9.15-38.87-28.39-45.71-53a134.63,134.63,0,0,1-4.5-51.59c6.36,51,28.78,88.41,83.16,98.69-3.64,14.32-20.27,23.75-45.2,25.8,10.79,18.07,56,34,92.34,32.12-1.66,2.2-2.64,4-4.11,5.35-21.71,19.21-47.27,25-75.38,20.9-8.86-1.28-17.56-3.66-26.3-5.52l-12.92,30c-17.48-5.45-34.43-26.41-45.36-55.94l-12.8,10.4c-18-33.76-21-67.57-10.14-102.81,1.65,21.71,1.06,43.7,9,64.67-.15-22,.3-43.82,11.16-63.9,3.63,38.4,9.74,75.82,30.67,109.14-5-16.85-11-33.48-14.58-50.63s-4.62-34.92-5-52.73c.93,3.41,1.94,6.8,2.77,10.23,5,21,13.32,40.47,27.57,57q22,25.53,55.58,30.72c-38.37-17.07-60.54-47.54-72.89-86.41,9.19,13.12,20.54,23.32,36,28.17C1344.32,1919.63,1354.06,1920.22,1366.45,1919.07Z"/><path d="M1876.43,1030.82c13.49-4.6,27.45-8.18,40.39-14,32.06-14.47,52.64-38.68,58.34-74.32-4.74,8.32-8.75,17.19-14.43,24.81a140.44,140.44,0,0,1-21,22.6,145.81,145.81,0,0,1-24.83,16.63,142.89,142.89,0,0,1-27.76,11.06c6.15-5.52,12.66-10.69,18.36-16.64,6.32-6.61,10.07-15,12-23.83,1.86-8.32,3.63-16.78,1.47-26.1-1.17.9-2.21,1.28-2.45,1.94-9,25.53-28.11,39.88-53.2,46.89a141.86,141.86,0,0,1-52.8,4.9c10.35-2.21,20.48-3.68,30.2-6.56,36.16-10.71,59.71-33.76,67.92-71.27.28-1.3.64-2.58,1-3.85a22.09,22.09,0,0,1,1.18-2.41c9.23,3.51,14.95,10.81,18.53,19.2s5.26,17.56,8.09,27.5c21.35-27.27,33.64-57,30.43-92.73,25.85,18.77,32.75,55.46,20.53,105.2l31.58,13.73c-13.95,22.29-32.06,38.09-58,44.36,3.21,3.7,6.05,6.89,8.77,10.18a8.56,8.56,0,0,1,1,2.6c-24.78,18.48-80.71,22.32-103,9.18,20.88.2,40.72-.21,60.16-4.84a18.15,18.15,0,0,0,6.51-2.88c-22.32.19-44.4-.28-64.74-11.21,38.67-3.64,76.44-9.54,110-30.81-17,5-33.73,11.16-51,14.73-17.52,3.62-35.56,4.68-53.37,6.86C1876.35,1031.42,1876.39,1031.12,1876.43,1030.82Z"/><path d="M340.9,943.83c3.57,24.41,15.31,43.95,34.64,59.14,18.79,14.76,40.89,21.76,63.71,27.16-36.07.24-70.66-6.7-104-20,33.27,21.16,70.65,27.19,109.08,29.77-7,8.37-18.94,10.55-63.66,12.4,20.85,7.84,42.82,7.38,65.48,7.7-20.84,12.63-75,9.64-103-9.42l10-12.68c-12.2-3.2-23.57-8.2-33.28-16.3-9.44-7.88-17.95-16.57-23.92-28.22L326.8,980c-1.82-8.63-4.23-17.57-5.52-26.68-3.76-26.57,1.27-51.06,18.6-72.28a67.84,67.84,0,0,1,5.5-5.75c.38-.36,1.24-.23,2.23-.38-3.37,35.43,9.14,65.4,31.36,92.27,1.31-19.8,7.85-36.13,25.54-47.37,13.68,60.61,52.51,78.27,99.14,84.35-22.16,4-57.31-3-76-15.06-12.35-8-21.76-18.51-27.18-32.36-.61-1.54-1.34-3-2-4.53-.12-.24-.46-.38-.69-.57-6.75,20.89,3.73,43.91,29.15,65.31A137.21,137.21,0,0,1,376,990.37,124.36,124.36,0,0,1,340.9,943.83Z"/><path d="M1017.51,428.74c-15.22-24.6-37.33-34.47-67-32.64,1.68,1.85,2.13,2.79,2.84,3,27,9.89,41.38,30.57,47.51,57.39,2.79,12.25,3.18,25,4.55,37.62a8.48,8.48,0,0,1-1.35,4.78c-7.54-49.64-31.75-84.18-83.74-93.65,8.06-15.49,17.17-20.56,47.42-26.5a138.49,138.49,0,0,0-43.25-25.06c-15.77-5.82-32.17-7.61-49.23-7,13.13-14.89,29.61-22.7,48.79-25.58s37.66,1,55.81,6.16l13.53-31.6c11.28,6.19,20.3,14.69,28.36,24.37s12.63,20.89,16.36,33l12.84-10.72c17.7,33.5,21.56,67.07,10.41,102.32-1.64-22.41-1.51-45.06-9.78-66.46,1.62,22.81,0,45-9.25,66l-2.16.05c-.58-5.67-1.17-11.34-1.73-17-2.84-29-8.91-57.23-22.26-83.47-1.36-2.67-2.85-5.27-4.39-7.84a6.53,6.53,0,0,0-3-2.56c13.78,33.3,21.68,67.66,20.51,103.87-1.63-6.2-3.15-12.45-4.92-18.61a126.75,126.75,0,0,0-21.83-43.48c-15.26-19.49-35.26-30.92-59.95-34.87C982.26,357.38,1005,388.72,1017.51,428.74Z"/><path d="M1936.78,1348.8c-1.62,12.57-3.81,24.69-11.88,34.57-3.71,4.52-8.31,8.32-14,13.94-5.14-24.62-13.84-45.16-32.12-60.2-17.94-14.75-39.09-21.82-63.38-24.89,2.29-1.18,3.06-1.94,3.82-1.92,17.37.33,34.7,1.53,51.14,7.63,21.23,7.88,37.58,21.23,45.64,43.19a23.91,23.91,0,0,0,2.09,3.5c6.51-22.92-4.93-46.64-31.19-65.88,11.34.39,36.21,13,52.62,26.5,15.73,13,27.36,29,35.34,49.43,0-20.26-14.15-45.26-33.36-60.76-15.32-12.38-28.16-18.05-65.12-28.47,38-.32,72.38,7.53,106.12,20.36-3.46-2.08-6.81-4.36-10.39-6.2-26.21-13.39-54.39-19.52-83.44-22.37-5.79-.57-11.59-1.07-17.39-2.62,20.92-10.63,43.06-12.17,67.08-9.8-7.34-5.32-15-5.15-22.11-6.42a187.61,187.61,0,0,0-22.83-2.44c-7.49-.4-15-.08-22.45-1.29,34.88-11.61,68.3-7.54,102,9.71l-10.49,13.38c25.59,6.41,43.87,22.23,57.62,44.4l-31.86,13.62c7.87,25.88,11.21,52.31-.08,78.55-4.32,10-10.33,18.94-20.27,28.41C1971.1,1405.3,1958.87,1375.48,1936.78,1348.8Z"/><path d="M1265.45,343.14l12.26,10.15c6.29-25.47,21.85-43.7,44.32-57.69,4.65,10.65,9.11,20.88,13.86,31.75,37.73-11.7,73.81-11.37,105.8,18.89-12.13,1.06-23.32,1-34,3.26s-21,6.23-31.07,10.58a102.43,102.43,0,0,0-29.46,19.56c21.06,1,37.6,7.1,48.94,25.48-55.21,10.17-78.39,47.05-85,98.17-1.17-24.5.51-48.4,12.46-70.44,8.23-15.16,20-26.53,36.33-32.71,1.24-.47,2.46-1,3.66-1.54.25-.12.36-.54.54-.82-18.36-8.1-45.85,4.88-66,30.71a141.3,141.3,0,0,1,27.58-52.85,124.22,124.22,0,0,1,47.58-35.22c-54.79,10.31-76.87,49.73-87.87,99.21.31-17.76.86-35.5,5.13-52.7,4.3-17.35,9.85-34.4,14.57-50.6-7.09,6.73-15.61,25.4-21.24,51.71-4,18.65-6.25,37.68-9.53,58.06-10.52-21.65-11-43.66-10.67-66-8,21.21-7.84,43.46-7.84,66.73C1242.5,423.91,1246.63,368,1265.45,343.14Z"/><path d="M406.87,1194.84l15.46-18.38c-.3-.67-.6-1.33-.89-2-11.55,3.22-23.15,5.11-34.79,1.88s-21.71-9.54-31.36-18.63c19.68-17.38,40.6-26,66.56-15.87.23-.72.47-1.44.7-2.15l-15-18.06c10.57-5.11,25.24-3.87,34.11,3.39a98.31,98.31,0,0,1,11.3,11.24c7.85,8.89,16.67,16.23,28.33,19.57,1.17.34,2.13,1.39,4.34,2.89-17.17,3.44-27.66,14.64-37.75,26.27C436.65,1198,422.81,1199.39,406.87,1194.84Zm17.45-70.09c21.29,30.66,21.3,32.42.5,66.09,9-3.58,12.8-10.79,18.11-16.38,5.58-5.87,11.59-11.32,17.16-16.71-5.72-5.45-11.37-10.55-16.67-16C437.92,1136.15,434.29,1128.57,424.32,1124.75Zm-41.74,33.11c10.58,9.43,24.76,9.23,33.66-.46C404.25,1148.59,392.73,1148.75,382.58,1157.86Z"/><path d="M1158.29,1959.87c-18.53-17.55-22.61-33.07-17.62-66.1-8.32,2.9-13.26,9.68-19.71,15.6-5-17.06-3-31.07,10.44-42.42,11.52-9.72,22.06-20.28,25.4-36.41,4.82,8.25,8.43,16.15,13.62,22.82,5.06,6.5,11.94,11.55,17.66,17.57,9.48,10,11.11,19.85,6.54,37.46l-18.8-15.27-2,.69C1183.81,1919.74,1175.32,1940.7,1158.29,1959.87Zm-32.47-70.19c28.54-19.69,33.16-19.7,64.21,0a36.85,36.85,0,0,0-6.35-9.16c-2.78-2.82-6.15-5-9.12-7.69a124.82,124.82,0,0,1-9.32-8.93c-2.63-2.87-4.85-6.12-8-10.17C1150.17,1869.55,1133.23,1875.22,1125.82,1889.68Zm31.81,43.4c9.35-10,9.23-24.71-.26-33.86C1148.59,1911.13,1148.68,1922.54,1157.63,1933.08Z"/><path d="M1909.29,1120.59c-5.62,7.11-12.89,11.73-15.52,20.14,32.44-5.09,48.09-1,65.21,16.67-13.07,17.08-31.76,22.21-65.45,17.62,3.3,7.94,9.36,13.08,15,18.64-12.82,6-26,4.57-36-4.07a83.58,83.58,0,0,1-9.09-9.25c-8.58-10.14-18.65-18-33-21.67,2.34-1.5,3.63-2.74,5.17-3.24,9.77-3.21,17.73-9,24.5-16.61,2.44-2.73,5.14-5.23,7.46-8C1878.66,1117.32,1892.87,1117.22,1909.29,1120.59Zm-19.2,69.14c-7.66-9.8-14.91-19.48-14.87-32.27,0-12.55,7.88-21.85,14.68-31.67-14.73,7.67-20.72,24.5-37.27,32.27C1869.83,1165.46,1875.2,1182.88,1890.09,1189.73Zm8.28-31.82c13.37,9.29,25.48,9,34.63-.45C1922,1148.79,1911.23,1148.76,1898.37,1157.91Z"/><path d="M1176.26,422.42,1195,406.77c3.34,15.38,3.63,29.27-9.22,40.39a107.53,107.53,0,0,0-8.73,8.2c-4,4.39-8.29,8.71-11.56,13.65-3,4.62-5,10-8,16.3-1.39-3.55-2.4-6.09-3.38-8.65-4.17-11-12.15-19.05-21-26.22-14.13-11.51-17.73-25.79-12.44-43.42l18.7,15.4,2-.77c-8.91-25.35-1.75-46.55,16.28-66.24,17.53,19.22,25.75,40.06,16.4,65.76Zm-50.32,3c2.22,8.42,9.61,12.16,15.22,17.58,5.83,5.62,11.29,11.63,16.6,17.15,5.59-5.8,10.9-11.71,16.64-17.17s12.77-9.19,15.34-17.38c-9.79,6.85-19,14.76-31.66,14.78C1145.29,440.42,1135.68,433,1125.94,425.44Zm31.65-8.78c9.68-10.73,9.42-26.07-.6-34C1148.58,394.9,1148.76,405.36,1157.59,416.66Z"/></g></g></svg>